<svg xmlns:dc="http://purl.org/dc/elements/1.1/" xmlns:cc="http://creativecommons.org/ns#" xmlns:rdf="http://www.w3.org/1999/02/22-rdf-syntax-ns#" xmlns:svg="http://www.w3.org/2000/svg" xmlns="http://www.w3.org/2000/svg" viewBox="0 0 42.666668 42.666668" height="42.666668" width="42.666668" xml:space="preserve" id="svg2"><metadata></metadata><defs id="defs6"><clipPath id="clipPath18" clipPathUnits="userSpaceOnUse"><path id="path16" d="M 0,32 H 32 V 0 H 0 Z"></path></clipPath></defs><g transform="matrix(1.3333333,0,0,-1.3333333,0,42.666667)" id="g10"><g id="g12"><g clip-path="url(#clipPath18)" id="g14"><g transform="translate(29.8262,26)" id="g20"><path id="path22" style="fill:#000000;fill-opacity:1;fill-rule:nonzero;stroke:none" d="m 0,0 -0.833,-10 h -20.212 l -2.5,10 z m 0.13,-16 h -22 c -1.103,0 -2,0.897 -2,2 0,1.103 0.897,2 2,2 H 1.007 L 2.174,2 h -26.219 l -1,4 h -4.781 V 4 h 3.219 l 3.55,-14.2 c -1.624,-0.51 -2.813,-2.011 -2.813,-3.8 0,-2.206 1.795,-4 4,-4 h 22 c 0.553,0 1,0.448 1,1 0,0.552 -0.447,1 -1,1"></path></g><g transform="translate(9.9565,2)" id="g24"><path id="path26" style="fill:#000000;fill-opacity:1;fill-rule:nonzero;stroke:none" d="M 0,0 C -0.551,0 -1,0.449 -1,1 -1,1.551 -0.551,2 0,2 0.551,2 1,1.551 1,1 1,0.449 0.551,0 0,0 m 0,4 c -1.654,0 -3,-1.346 -3,-3 0,-1.654 1.346,-3 3,-3 1.654,0 3,1.346 3,3 0,1.654 -1.346,3 -3,3"></path></g><g transform="translate(24.9565,2)" id="g28"><path id="path30" style="fill:#000000;fill-opacity:1;fill-rule:nonzero;stroke:none" d="M 0,0 C -0.551,0 -1,0.449 -1,1 -1,1.551 -0.551,2 0,2 0.551,2 1,1.551 1,1 1,0.449 0.551,0 0,0 m 0,4 c -1.654,0 -3,-1.346 -3,-3 0,-1.654 1.346,-3 3,-3 1.654,0 3,1.346 3,3 0,1.654 -1.346,3 -3,3"></path></g></g></g></g></svg>