<svg xmlns:dc="http://purl.org/dc/elements/1.1/" xmlns:cc="http://creativecommons.org/ns#" xmlns:rdf="http://www.w3.org/1999/02/22-rdf-syntax-ns#" xmlns:svg="http://www.w3.org/2000/svg" xmlns="http://www.w3.org/2000/svg" viewBox="0 0 42.666668 42.666668" height="42.666668" width="42.666668" xml:space="preserve" id="svg2"><metadata></metadata><defs id="defs6"></defs><g transform="matrix(1.3333333,0,0,-1.3333333,0,42.666667)" id="g10"><path id="path12" style="fill:#000000;fill-opacity:1;fill-rule:nonzero;stroke:none" d="M 4,0 H 28 V 32 H 4 Z M 6,30 H 26 V 2 H 6 Z"></path><path id="path14" style="fill:#000000;fill-opacity:1;fill-rule:nonzero;stroke:none" d="m 10,24 h 12 v 2 H 10 Z M 24,22 H 8 v 6 h 16 z"></path><path id="path16" style="fill:#000000;fill-opacity:1;fill-rule:nonzero;stroke:none" d="m 14,16 h 4 v 4 h -4 z"></path><path id="path18" style="fill:#000000;fill-opacity:1;fill-rule:nonzero;stroke:none" d="m 8,16 h 4 v 4 H 8 Z"></path><path id="path20" style="fill:#000000;fill-opacity:1;fill-rule:nonzero;stroke:none" d="m 20,16 h 4 v 4 h -4 z"></path><path id="path22" style="fill:#000000;fill-opacity:1;fill-rule:nonzero;stroke:none" d="m 14,10 h 4 v 4 h -4 z"></path><path id="path24" style="fill:#000000;fill-opacity:1;fill-rule:nonzero;stroke:none" d="m 8,10 h 4 v 4 H 8 Z"></path><path id="path26" style="fill:#000000;fill-opacity:1;fill-rule:nonzero;stroke:none" d="m 20,10 h 4 v 4 h -4 z"></path><path id="path28" style="fill:#000000;fill-opacity:1;fill-rule:nonzero;stroke:none" d="m 14,4 h 4 v 4 h -4 z"></path><path id="path30" style="fill:#000000;fill-opacity:1;fill-rule:nonzero;stroke:none" d="m 8,4 h 4 V 8 H 8 Z"></path><path id="path32" style="fill:#000000;fill-opacity:1;fill-rule:nonzero;stroke:none" d="m 20,4 h 4 v 4 h -4 z"></path></g></svg>