<svg xmlns:dc="http://purl.org/dc/elements/1.1/" xmlns:cc="http://creativecommons.org/ns#" xmlns:rdf="http://www.w3.org/1999/02/22-rdf-syntax-ns#" xmlns:svg="http://www.w3.org/2000/svg" xmlns="http://www.w3.org/2000/svg" viewBox="0 0 42.666668 42.666668" height="42.666668" width="42.666668" xml:space="preserve" id="svg2"><metadata></metadata><defs id="defs6"><clipPath id="clipPath26" clipPathUnits="userSpaceOnUse"><path id="path24" d="M 0,32 H 32 V 0 H 0 Z"></path></clipPath></defs><g transform="matrix(1.3333333,0,0,-1.3333333,0,42.666667)" id="g10"><g transform="translate(3.9996,32.0004)" id="g12"><path id="path14" style="fill:#000000;fill-opacity:1;fill-rule:nonzero;stroke:none" d="M 0,0 V -32 H 24 V -6.586 L 17.414,0 Z m 2.001,-2.001 h 14.585 l 5.415,-5.413 v -22.587 h -20 z"></path></g><g transform="translate(27,24)" id="g16"><path id="path18" style="fill:#000000;fill-opacity:1;fill-rule:nonzero;stroke:none" d="m 0,0 h -7 v 7 h 2 V 2 h 5 z"></path></g><g id="g20"><g clip-path="url(#clipPath26)" id="g22"><g transform="translate(18,9)" id="g28"><path id="path30" style="fill:none;stroke:#000000;stroke-width:2;stroke-linecap:butt;stroke-linejoin:miter;stroke-miterlimit:10;stroke-dasharray:none;stroke-opacity:1" d="m 0,0 c -3.314,0 -6,2.686 -6,6 0,3.314 2.686,6 6,6"></path></g><g transform="translate(20,13)" id="g32"><path id="path34" style="fill:none;stroke:#000000;stroke-width:2;stroke-linecap:butt;stroke-linejoin:miter;stroke-miterlimit:10;stroke-dasharray:none;stroke-opacity:1" d="M 0,0 H -11"></path></g><g transform="translate(20,17)" id="g36"><path id="path38" style="fill:none;stroke:#000000;stroke-width:2;stroke-linecap:butt;stroke-linejoin:miter;stroke-miterlimit:10;stroke-dasharray:none;stroke-opacity:1" d="M 0,0 H -11"></path></g></g></g></g></svg>