<svg xmlns:inkscape="http://www.inkscape.org/namespaces/inkscape" xmlns:sodipodi="http://sodipodi.sourceforge.net/DTD/sodipodi-0.dtd" xmlns="http://www.w3.org/2000/svg" xmlns:svg="http://www.w3.org/2000/svg" id="svg2" xml:space="preserve" width="42.666664" height="42.666664" viewBox="0 0 42.666664 42.666664" sodipodi:docname="bd091bb26ae08f31e3fcc5455f191257.ai"><defs id="defs6"><clipPath clipPathUnits="userSpaceOnUse" id="clipPath20"><path d="M 0,32 H 32 V 0 H 0 Z" id="path18"></path></clipPath></defs><g id="g8" inkscape:groupmode="layer" inkscape:label="bd091bb26ae08f31e3fcc5455f191257" transform="matrix(1.3333333,0,0,-1.3333333,0,42.666666)"><g id="g10" transform="translate(31,24)"><path d="m 0,0 h -7 v 7 h 2 V 2 h 5 z" style="fill:#000000;fill-opacity:1;fill-rule:nonzero;stroke:none" id="path12"></path></g><g id="g14"><g id="g16" clip-path="url(#clipPath20)"><g id="g22" transform="translate(21,18)"><path d="m 0,0 c 0,-3.314 -2.686,-6 -6,-6 -3.314,0 -6,2.686 -6,6 0,3.314 2.686,6 6,6 3.314,0 6,-2.686 6,-6 z" style="fill:none;stroke:#000000;stroke-width:2;stroke-linecap:butt;stroke-linejoin:miter;stroke-miterlimit:10;stroke-dasharray:none;stroke-opacity:1" id="path24"></path></g><g id="g26" transform="translate(17.5,18)"><path d="M 0,0 C 0,-1.381 -1.119,-2.5 -2.5,-2.5 -3.881,-2.5 -5,-1.381 -5,0 -5,1.381 -3.881,2.5 -2.5,2.5 -1.119,2.5 0,1.381 0,0 Z" style="fill:none;stroke:#000000;stroke-width:2;stroke-linecap:butt;stroke-linejoin:miter;stroke-miterlimit:10;stroke-dasharray:none;stroke-opacity:1" id="path28"></path></g><g id="g30" transform="translate(18,2)"><path d="m 0,0 h -12 -4 V 28 H 6.586 L 12,22.586 V 0 Z M 7.414,30 H -18 V -2 h 2 4.349 H -0.349 14 v 2 23.414 z" style="fill:#000000;fill-opacity:1;fill-rule:nonzero;stroke:none" id="path32"></path></g><g id="g34" transform="translate(20.6146,15.8997)"><path d="m 0,0 c -0.751,-2.006 -2.542,-3.499 -4.719,-3.826 l 3.908,-6.77 1.598,3.232 3.598,-0.232 z" style="fill:none;stroke:#000000;stroke-width:2;stroke-linecap:butt;stroke-linejoin:miter;stroke-miterlimit:10;stroke-dasharray:none;stroke-opacity:1" id="path36"></path></g><g id="g38" transform="translate(9.3854,15.8997)"><path d="m 0,0 -4.385,-7.596 3.598,0.232 1.598,-3.232 3.908,6.77 C 2.542,-3.499 0.751,-2.006 0,0 Z" style="fill:none;stroke:#000000;stroke-width:2;stroke-linecap:butt;stroke-linejoin:miter;stroke-miterlimit:10;stroke-dasharray:none;stroke-opacity:1" id="path40"></path></g></g></g></g></svg>