<svg xmlns:inkscape="http://www.inkscape.org/namespaces/inkscape" xmlns:sodipodi="http://sodipodi.sourceforge.net/DTD/sodipodi-0.dtd" xmlns="http://www.w3.org/2000/svg" xmlns:svg="http://www.w3.org/2000/svg" id="svg2" xml:space="preserve" width="42.597599" height="42.666664" viewBox="0 0 42.597599 42.666664" sodipodi:docname="c20c717869d3e165df5dfa1fab66a4fc.ai"><defs id="defs6"><clipPath clipPathUnits="userSpaceOnUse" id="clipPath16"><path d="M 0,32 H 32 V 0 H 0 Z" id="path14"></path></clipPath></defs><g id="g8" inkscape:groupmode="layer" inkscape:label="c20c717869d3e165df5dfa1fab66a4fc" transform="matrix(1.3333333,0,0,-1.3333333,-0.06906666,42.666666)"><g id="g10"><g id="g12" clip-path="url(#clipPath16)"><g id="g18" transform="translate(26,11)"><path d="m 0,0 c 0,-1.105 -0.895,-2 -2,-2 -1.105,0 -2,0.895 -2,2 0,1.105 0.895,2 2,2 1.105,0 2,-0.895 2,-2 z" style="fill:none;stroke:#000000;stroke-width:2;stroke-linecap:butt;stroke-linejoin:miter;stroke-miterlimit:10;stroke-dasharray:none;stroke-opacity:1" id="path20"></path></g><g id="g22" transform="translate(24,4)"><path d="M 0,0 V 5" style="fill:none;stroke:#000000;stroke-width:2;stroke-linecap:butt;stroke-linejoin:miter;stroke-miterlimit:10;stroke-dasharray:none;stroke-opacity:1" id="path24"></path></g><g id="g26" transform="translate(21,6)"><path d="M 0,0 H 2.751" style="fill:none;stroke:#000000;stroke-width:2;stroke-linecap:butt;stroke-linejoin:miter;stroke-miterlimit:10;stroke-dasharray:none;stroke-opacity:1" id="path28"></path></g><g id="g30" transform="translate(9.0518,23)"><path d="m 0,0 c 0,3.86 3.14,7 7,7 3.86,0 7,-3.14 7,-7 0,-3.86 -3.14,-7 -7,-7 -3.86,0 -7,3.14 -7,7 m 7,-9 c 4.962,0 9,4.038 9,9 C 16,4.962 11.962,9 7,9 2.038,9 -2,4.962 -2,0 -2,-3.228 -0.286,-6.056 2.273,-7.644 -4.321,-9.493 -9,-15.138 -9,-22 v -1 h 23.948 l -3,2 H -6.961 C -6.428,-14.195 -0.488,-9 7,-9" style="fill:#000000;fill-opacity:1;fill-rule:nonzero;stroke:none" id="path32"></path></g><g id="g34" transform="translate(23.5013,1)"><path d="M 0,0 C -4.142,0 -7.5,3.358 -7.5,7.5 -7.5,11.642 -4.142,15 0,15 4.142,15 7.5,11.642 7.5,7.5 7.5,3.358 4.142,0 0,0 Z" style="fill:none;stroke:#000000;stroke-width:2;stroke-linecap:butt;stroke-linejoin:miter;stroke-miterlimit:10;stroke-dasharray:none;stroke-opacity:1" id="path36"></path></g></g></g></g></svg>