<svg xmlns:xlink="http://www.w3.org/1999/xlink" xmlns="http://www.w3.org/2000/svg" xmlns:svg="http://www.w3.org/2000/svg" id="svg1" width="42.666668" height="42.666668" viewBox="0 0 42.666668 42.666668"><defs id="defs1"><clipPath clipPathUnits="userSpaceOnUse" id="clipPath8"><path d="M 0,32 H 32 V 0 H 0 Z" transform="translate(-22.4998,-10.711901)" id="path8"></path></clipPath><clipPath clipPathUnits="userSpaceOnUse" id="clipPath10"><path d="M 0,32 H 32 V 0 H 0 Z" id="path10"></path></clipPath><clipPath clipPathUnits="userSpaceOnUse" id="clipPath12"><path d="M 0,32 H 32 V 0 H 0 Z" id="path12"></path></clipPath><clipPath clipPathUnits="userSpaceOnUse" id="clipPath14"><path d="M 0,32 H 32 V 0 H 0 Z" id="path14"></path></clipPath><clipPath clipPathUnits="userSpaceOnUse" id="clipPath16"><path d="M 0,32 H 32 V 0 H 0 Z" id="path16"></path></clipPath><clipPath clipPathUnits="userSpaceOnUse" id="clipPath18"><path d="M 0,32 H 32 V 0 H 0 Z" transform="translate(-26.727801,-1.3373998)" id="path18"></path></clipPath><clipPath clipPathUnits="userSpaceOnUse" id="clipPath20"><path d="M 0,32 H 32 V 0 H 0 Z" transform="translate(-18.4456,-9.6201)" id="path20"></path></clipPath><clipPath clipPathUnits="userSpaceOnUse" id="clipPath22"><path d="M 0,32 H 32 V 0 H 0 Z" transform="translate(-26.554401,-9.6201)" id="path22"></path></clipPath><clipPath clipPathUnits="userSpaceOnUse" id="clipPath24"><path d="M 0,32 H 32 V 0 H 0 Z" transform="translate(-18.271701,-1.3373998)" id="path24"></path></clipPath></defs><g id="layer-MC0"><path id="path1" d="m 0,0 v -32 h 13 v 1.999 H 2 v 28 h 14.586 l 5.707,-5.707 1.414,1.414 L 17.414,0 Z" style="fill:#000000 icc-color(sRGB-IEC61966-2, 0.1, 0, 0, 0);fill-opacity:1;fill-rule:nonzero;stroke:none" transform="matrix(1.3333333,0,0,-1.3333333,3.3612,-5.3333333e-4)"></path><path id="path2" d="m 0,0 h -2 v 8.833 h -6 v 7 h 2 v -5 h 6 z" style="fill:#000000 icc-color(sRGB-IEC61966-2, 0.1, 0, 0, 0);fill-opacity:1;fill-rule:nonzero;stroke:none" transform="matrix(1.3333333,0,0,-1.3333333,35.361067,22.444)"></path><path id="path3" d="m 12.521,1 h -2 v 30 h 2 z" style="fill:#000000 icc-color(sRGB-IEC61966-2, 0.1, 0, 0, 0);fill-opacity:1;fill-rule:nonzero;stroke:none" transform="matrix(1.3333333,0,0,-1.3333333,0,42.666667)"></path><path id="path4" d="m 25.521,17 h -14 v 2 h 14 z" style="fill:#000000 icc-color(sRGB-IEC61966-2, 0.1, 0, 0, 0);fill-opacity:1;fill-rule:nonzero;stroke:none" transform="matrix(1.3333333,0,0,-1.3333333,0,42.666667)"></path><path id="path5" d="m 11.521,7 h -8 v 2 h 8 z" style="fill:#000000 icc-color(sRGB-IEC61966-2, 0.1, 0, 0, 0);fill-opacity:1;fill-rule:nonzero;stroke:none" transform="matrix(1.3333333,0,0,-1.3333333,0,42.666667)"></path><path id="path6" d="m 11.521,23 h -8 v 2 h 8 z" style="fill:#000000 icc-color(sRGB-IEC61966-2, 0.1, 0, 0, 0);fill-opacity:1;fill-rule:nonzero;stroke:none" transform="matrix(1.3333333,0,0,-1.3333333,0,42.666667)"></path><path id="path7" d="m 0,0 c -0.944,0 -1.887,-0.359 -2.606,-1.078 -1.437,-1.437 -1.437,-3.775 0,-5.212 1.393,-1.392 3.819,-1.392 5.212,0 0.696,0.697 1.08,1.622 1.08,2.606 0,0.985 -0.384,1.91 -1.08,2.606 C 1.888,-0.359 0.944,0 0,0 m 0,-9.369 c -1.519,0 -2.946,0.591 -4.02,1.665 -2.217,2.217 -2.217,5.824 0,8.04 2.217,2.218 5.823,2.217 8.04,0 1.074,-1.073 1.666,-2.501 1.666,-4.02 0,-1.518 -0.592,-2.946 -1.666,-4.02 C 2.946,-8.778 1.519,-9.369 0,-9.369" style="fill:#000000 icc-color(sRGB-IEC61966-2, 0.1, 0, 0, 0);fill-opacity:1;fill-rule:nonzero;stroke:none" transform="matrix(1.3333333,0,0,-1.3333333,29.999733,28.384133)" clip-path="url(#clipPath8)"></path><path id="path9" d="m 23.5,11.713 h -2 v 2.245 h 2 z" style="fill:#000000 icc-color(sRGB-IEC61966-2, 0.1, 0, 0, 0);fill-opacity:1;fill-rule:nonzero;stroke:none" transform="matrix(1.3333333,0,0,-1.3333333,0,42.666667)" clip-path="url(#clipPath10)"></path><path id="path11" d="m 23.5,0 h -2 v 2.245 h 2 z" style="fill:#000000 icc-color(sRGB-IEC61966-2, 0.1, 0, 0, 0);fill-opacity:1;fill-rule:nonzero;stroke:none" transform="matrix(1.3333333,0,0,-1.3333333,0,42.666667)" clip-path="url(#clipPath12)"></path><path id="path13" d="m 29.479,5.979 h -2.245 v 2 h 2.245 z" style="fill:#000000 icc-color(sRGB-IEC61966-2, 0.1, 0, 0, 0);fill-opacity:1;fill-rule:nonzero;stroke:none" transform="matrix(1.3333333,0,0,-1.3333333,0,42.666667)" clip-path="url(#clipPath14)"></path><path id="path15" d="m 17.766,5.979 h -2.245 v 2 h 2.245 z" style="fill:#000000 icc-color(sRGB-IEC61966-2, 0.1, 0, 0, 0);fill-opacity:1;fill-rule:nonzero;stroke:none" transform="matrix(1.3333333,0,0,-1.3333333,0,42.666667)" clip-path="url(#clipPath16)"></path><path id="path17" d="M 0,0 -1.587,1.587 -0.173,3.001 1.414,1.414 Z" style="fill:#000000 icc-color(sRGB-IEC61966-2, 0.1, 0, 0, 0);fill-opacity:1;fill-rule:nonzero;stroke:none" transform="matrix(1.3333333,0,0,-1.3333333,35.637067,40.883467)" clip-path="url(#clipPath18)"></path><path id="path19" d="M 0,0 -1.588,1.587 -0.174,3.001 1.414,1.414 Z" style="fill:#000000 icc-color(sRGB-IEC61966-2, 0.1, 0, 0, 0);fill-opacity:1;fill-rule:nonzero;stroke:none" transform="matrix(1.3333333,0,0,-1.3333333,24.594133,29.839867)" clip-path="url(#clipPath20)"></path><path id="path21" d="M 0,0 -1.414,1.414 0.173,3.001 1.587,1.587 Z" style="fill:#000000 icc-color(sRGB-IEC61966-2, 0.1, 0, 0, 0);fill-opacity:1;fill-rule:nonzero;stroke:none" transform="matrix(1.3333333,0,0,-1.3333333,35.405867,29.839867)" clip-path="url(#clipPath22)"></path><path id="path23" d="M 0,0 -1.414,1.414 0.174,3.001 1.588,1.587 Z" style="fill:#000000 icc-color(sRGB-IEC61966-2, 0.1, 0, 0, 0);fill-opacity:1;fill-rule:nonzero;stroke:none" transform="matrix(1.3333333,0,0,-1.3333333,24.362267,40.883467)" clip-path="url(#clipPath24)"></path></g></svg>