<svg xmlns:xlink="http://www.w3.org/1999/xlink" xmlns="http://www.w3.org/2000/svg" xmlns:svg="http://www.w3.org/2000/svg" id="svg1" width="42.666668" height="42.666668" viewBox="0 0 42.666668 42.666668"><defs id="defs1"><clipPath clipPathUnits="userSpaceOnUse" id="clipPath2"><path d="M 0,32 H 32 V 0 H 0 Z" transform="translate(-17.000001,-2.5838001)" id="path2"></path></clipPath></defs><g id="layer-MC0"><path id="path1" d="M 0,0 V 26.581 C 4.433,23.812 10.749,22.205 12.991,21.695 12.658,7.343 3.491,1.651 0,0 m -14.991,21.695 c 2.242,0.51 8.558,2.117 12.991,4.886 V 0.017 c -3.475,1.694 -12.654,7.5 -12.991,21.678 m 29.187,1.785 c -0.097,0.02 -9.822,2.136 -14.571,5.936 h -1.25 C -6.374,25.616 -16.099,23.5 -16.196,23.48 L -17,23.319 V 22.5 C -17,3.005 -1.157,-2.532 -1,-2.584 -0.843,-2.532 15,3.005 15,22.5 v 0.819 z" style="fill:#000000 icc-color(sRGB-IEC61966-2, 0.1, 0, 0, 0);fill-opacity:1;fill-rule:nonzero;stroke:none" transform="matrix(1.3333333,0,0,-1.3333333,22.666667,39.2216)" clip-path="url(#clipPath2)"></path></g></svg>