<svg xmlns:xlink="http://www.w3.org/1999/xlink" xmlns="http://www.w3.org/2000/svg" xmlns:svg="http://www.w3.org/2000/svg" id="svg1" width="42.666668" height="42.666668" viewBox="0 0 42.666668 42.666668"><defs id="defs1"><clipPath clipPathUnits="userSpaceOnUse" id="clipPath4"><path d="M 0,32 H 32 V 0 H 0 Z" transform="translate(-12,-9.9998002)" id="path4"></path></clipPath><clipPath clipPathUnits="userSpaceOnUse" id="clipPath6"><path d="M 0,32 H 32 V 0 H 0 Z" id="path6"></path></clipPath><clipPath clipPathUnits="userSpaceOnUse" id="clipPath8"><path d="M 0,32 H 32 V 0 H 0 Z" id="path8"></path></clipPath><clipPath clipPathUnits="userSpaceOnUse" id="clipPath10"><path d="M 0,32 H 32 V 0 H 0 Z" transform="translate(-10,-24.4998)" id="path10"></path></clipPath><clipPath clipPathUnits="userSpaceOnUse" id="clipPath12"><path d="M 0,32 H 32 V 0 H 0 Z" transform="translate(-19,-23.999901)" id="path12"></path></clipPath><clipPath clipPathUnits="userSpaceOnUse" id="clipPath14"><path d="M 0,32 H 32 V 0 H 0 Z" transform="translate(-27.000001,-30.585801)" id="path14"></path></clipPath><clipPath clipPathUnits="userSpaceOnUse" id="clipPath16"><path d="M 0,32 H 32 V 0 H 0 Z" transform="translate(-19,-8.0000002)" id="path16"></path></clipPath><clipPath clipPathUnits="userSpaceOnUse" id="clipPath18"><path d="M 0,32 H 32 V 0 H 0 Z" transform="translate(-25.585801)" id="path18"></path></clipPath></defs><g id="layer-MC0"><path id="path1" d="M 0,0 -5.707,5.707 0,11.414 1.414,10 -2.879,5.707 1.414,1.414 Z" style="fill:#000000 icc-color(sRGB-IEC61966-2, 0.1, 0, 0, 0);fill-opacity:1;fill-rule:nonzero;stroke:none" transform="matrix(1.3333333,0,0,-1.3333333,35.609333,28.942667)"></path><path id="path2" d="m 23,15 h 9 v 2 h -9 z" style="fill:#000000 icc-color(sRGB-IEC61966-2, 0.1, 0, 0, 0);fill-opacity:1;fill-rule:nonzero;stroke:none" transform="matrix(1.3333333,0,0,-1.3333333,0,42.666667)"></path><path id="path3" d="m 0,0 c -3.584,0 -6.5,2.916 -6.5,6.5 0,3.584 2.916,6.5 6.5,6.5 V 11 C -2.481,11 -4.5,8.981 -4.5,6.5 -4.5,4.019 -2.481,2 0,2 Z" style="fill:#000000 icc-color(sRGB-IEC61966-2, 0.1, 0, 0, 0);fill-opacity:1;fill-rule:nonzero;stroke:none" transform="matrix(1.3333333,0,0,-1.3333333,16,29.3336)" clip-path="url(#clipPath4)"></path><path id="path5" d="M 15,14 H 4 v 2 h 11 z" style="fill:#000000 icc-color(sRGB-IEC61966-2, 0.1, 0, 0, 0);fill-opacity:1;fill-rule:nonzero;stroke:none" transform="matrix(1.3333333,0,0,-1.3333333,0,42.666667)" clip-path="url(#clipPath6)"></path><path id="path7" d="M 15,17 H 4 v 2 h 11 z" style="fill:#000000 icc-color(sRGB-IEC61966-2, 0.1, 0, 0, 0);fill-opacity:1;fill-rule:nonzero;stroke:none" transform="matrix(1.3333333,0,0,-1.3333333,0,42.666667)" clip-path="url(#clipPath8)"></path><path id="path9" d="m 0,0 c -4.411,0 -8,-3.589 -8,-8 0,-4.411 3.589,-8 8,-8 4.411,0 8,3.589 8,8 0,4.411 -3.589,8 -8,8 m 0,-18 c -5.514,0 -10,4.486 -10,10 0,5.514 4.486,10 10,10 5.514,0 10,-4.486 10,-10 0,-5.514 -4.486,-10 -10,-10" style="fill:#000000 icc-color(sRGB-IEC61966-2, 0.1, 0, 0, 0);fill-opacity:1;fill-rule:nonzero;stroke:none" transform="matrix(1.3333333,0,0,-1.3333333,13.333333,10.000267)" clip-path="url(#clipPath10)"></path><path id="path11" d="M 0,0 V 8 H 2 V 2 H 8 V 0 Z" style="fill:#000000 icc-color(sRGB-IEC61966-2, 0.1, 0, 0, 0);fill-opacity:1;fill-rule:nonzero;stroke:none" transform="matrix(1.3333333,0,0,-1.3333333,25.333333,10.6668)" clip-path="url(#clipPath12)"></path><path id="path13" d="m 0,0 -1.414,1.414 -5.879,-5.879 1.414,-1.414 z" style="fill:#000000 icc-color(sRGB-IEC61966-2, 0.1, 0, 0, 0);fill-opacity:1;fill-rule:nonzero;stroke:none" transform="matrix(1.3333333,0,0,-1.3333333,36,1.8856)" clip-path="url(#clipPath14)"></path><path id="path15" d="M 0,0 H 8 V -2 H 2 V -8 H 0 Z" style="fill:#000000 icc-color(sRGB-IEC61966-2, 0.1, 0, 0, 0);fill-opacity:1;fill-rule:nonzero;stroke:none" transform="matrix(1.3333333,0,0,-1.3333333,25.333333,32)" clip-path="url(#clipPath16)"></path><path id="path17" d="M 0,0 1.414,1.414 -4.465,7.293 -5.879,5.879 Z" style="fill:#000000 icc-color(sRGB-IEC61966-2, 0.1, 0, 0, 0);fill-opacity:1;fill-rule:nonzero;stroke:none" transform="matrix(1.3333333,0,0,-1.3333333,34.1144,42.666667)" clip-path="url(#clipPath18)"></path></g></svg>