<svg xmlns:dc="http://purl.org/dc/elements/1.1/" xmlns:cc="http://creativecommons.org/ns#" xmlns:rdf="http://www.w3.org/1999/02/22-rdf-syntax-ns#" xmlns:svg="http://www.w3.org/2000/svg" xmlns="http://www.w3.org/2000/svg" viewBox="0 0 42.666668 42.666668" height="42.666668" width="42.666668" xml:space="preserve" id="svg2"><metadata></metadata><defs id="defs6"><clipPath id="clipPath18" clipPathUnits="userSpaceOnUse"><path id="path16" d="M 0,32 H 32 V 0 H 0 Z"></path></clipPath></defs><g transform="matrix(1.3333333,0,0,-1.3333333,0,42.666667)" id="g10"><g id="g12"><g clip-path="url(#clipPath18)" id="g14"><g transform="translate(8.4596,5.2457)" id="g20"><path id="path22" style="fill:#000000;fill-opacity:1;fill-rule:nonzero;stroke:none" d="m 0,0 0.435,-0.285 c 5.345,-3.495 12.505,-2.75 17.026,1.771 5.296,5.296 5.296,13.912 0,19.208 -5.295,5.295 -13.912,5.295 -19.208,0 C -6.198,16.243 -6.984,9.153 -3.616,3.836 l 0.265,-0.419 -1.748,-5.245 z m -8.44,-5.246 2.797,8.392 c -3.645,6.169 -2.682,13.925 2.419,19.025 6.11,6.111 16.052,6.111 22.162,0 6.111,-6.11 6.111,-16.052 0,-22.162 C 13.847,-5.083 5.852,-6.023 -0.263,-2.314 Z"></path></g><g transform="translate(12.6975,12.4189)" id="g24"><path id="path26" style="fill:#000000;fill-opacity:1;fill-rule:nonzero;stroke:none" d="m 0,0 v -0.001 l 0.017,0.018 z m 0.464,0.471 c 3.156,-3.102 5.813,-3.436 6.808,-3.436 0.8,0 1.455,0.196 1.799,0.54 l 1.498,1.497 c 0.032,0.031 0.047,0.068 0.047,0.113 0,0.044 -0.015,0.081 -0.047,0.113 L 8.323,1.544 C 8.27,1.587 8.147,1.587 8.098,1.544 L 6.84,0.288 C 6.081,-0.47 4.848,-0.47 4.089,0.288 l -3.801,3.8 c -0.368,0.366 -0.571,0.855 -0.571,1.375 0,0.52 0.203,1.009 0.571,1.376 l 1.256,1.255 c 0.029,0.036 0.043,0.071 0.043,0.113 0,0.042 -0.014,0.078 -0.04,0.108 l -2.257,2.26 C -0.765,10.63 -0.865,10.63 -0.92,10.574 L -2.426,9.069 C -3.432,8.063 -3.326,4.33 0.464,0.471 m 6.808,-5.526 c -2.398,0 -5.098,1.207 -7.525,3.34 l -0.033,-0.032 -0.732,0.746 c -0.002,0.002 -0.004,0.004 -0.006,0.006 l -0.721,0.707 0.032,0.032 c -3.775,4.29 -4.132,8.861 -2.191,10.803 l 1.506,1.505 c 0.874,0.872 2.292,0.872 3.165,0 L 3.16,9.639 C 3.472,9.297 3.676,8.763 3.676,8.207 3.676,7.646 3.469,7.109 3.091,6.693 L 1.867,5.464 5.465,1.867 6.705,3.101 c 0.833,0.755 2.157,0.76 3.006,10e-4 l 0.09,-0.081 2.245,-2.246 c 0.426,-0.425 0.659,-0.989 0.659,-1.59 0,-0.601 -0.233,-1.166 -0.659,-1.591 L 10.549,-3.903 C 9.806,-4.646 8.642,-5.055 7.272,-5.055"></path></g></g></g></g></svg>