<svg xmlns="http://www.w3.org/2000/svg" xmlns:xlink="http://www.w3.org/1999/xlink" id="Capa_1" x="0px" y="0px" viewBox="0 0 150 150" style="enable-background:new 0 0 150 150;" xml:space="preserve"><style type="text/css">	.st0{fill:#FD4A5C;}</style><g>	<path class="st0" d="M146.57,41.05l-1.33-1.38h-19.02V9.26l-1.32-1.32H16.1l-1.32,1.32v15.86L4.75,25.11l-1.33,1.38l5.02,114.31  l1.32,1.27h131.48l0.9-0.95l0.39,0.02l0.02-0.45l0.02-0.02l-0.01-0.17l4-99.2L146.57,41.05z M143.39,42.77l-2.63,65.21l-3.2-57.85  l-0.01-0.22l-1.32-1.24h-10.01v-5.89H143.39z M123.12,11.04v37.62H71.14L47.79,25.56l-0.88-0.41l-29.03-0.03V11.04H123.12z   M70.39,51.77h64.16l4.83,87.18H11.48L6.62,28.21h39.44l23.35,23.11L70.39,51.77z"></path>	<polygon class="st0" points="68.95,78.75 68.95,104.91 72.05,104.91 72.05,78.75 83.63,90.33 85.83,88.13 71.44,73.74 69.56,73.74   55.17,88.13 57.37,90.33  "></polygon>	<polygon class="st0" points="90.31,114.44 91.63,113.12 91.63,98.04 88.53,98.04 88.53,111.34 52.48,111.34 52.48,98.04   49.38,98.04 49.38,113.12 50.7,114.44  "></polygon></g></svg>