<svg xmlns="http://www.w3.org/2000/svg" xmlns:xlink="http://www.w3.org/1999/xlink" id="Capa_1" x="0px" y="0px" viewBox="0 0 150 150" style="enable-background:new 0 0 150 150;" xml:space="preserve"><style type="text/css">	.st0{fill:#FD4A5C;}</style><g>	<path class="st0" d="M9.1,38.62l0.39,0.16h103.4l0.18-0.18l0.51,0.02l21.07-10.53l6.55-3.26l0.31-0.5v-0.01v-1.78v-0.01l-0.3-0.49  L113.58,8.11l-0.5,0.02l-0.19-0.19H9.49L9.1,8.1l-1,1L7.94,9.49v27.74l0.16,0.39L9.1,38.62z M23.02,35.68H11.04V11.04h11.97V35.68z   M26.12,35.68V24.91h85.2v10.76H26.12z M111.33,21.81h-85.2V11.04h85.2V21.81z M137.04,23.41l-4.21,2.11v-4.23L137.04,23.41z   M129.72,27.08l-15.27,7.64V12.01l15.27,7.7V27.08z"></path>	<path class="st0" d="M141.9,61.23l-1-1l-0.39-0.16h-12.53V53.2l-0.55-0.55h-2l-0.55,0.55v6.87h-17.26V53.2l-0.55-0.55h-2  l-0.55,0.55v6.87H87.24V53.2l-0.55-0.55h-2l-0.55,0.55v6.87H66.86V53.2l-0.55-0.55h-2l-0.55,0.55v6.87H46.49V53.2l-0.55-0.55h-2  l-0.55,0.55v6.87H26.12V53.2l-0.55-0.55h-2l-0.55,0.55v6.87H9.49L9.1,60.23l-1,1l-0.16,0.39v78.89l0.16,0.39l1,1l0.39,0.16h131.02  l0.39-0.16l1-1l0.16-0.39V61.62L141.9,61.23z M23.57,70.6h2l0.55-0.55v-6.88h17.26v6.88l0.55,0.55h2l0.55-0.55v-6.88h17.26v6.88  l0.55,0.55h2l0.55-0.55v-6.88h17.27v6.88l0.55,0.55h2l0.55-0.55v-6.88h17.26v6.88l0.55,0.55h2l0.55-0.55v-6.88h17.26v6.88  l0.55,0.55h2l0.55-0.55v-6.88h10.97v75.78H11.04V63.17h11.97v6.88L23.57,70.6z"></path>	<polygon class="st0" points="37,130.89 37.55,130.34 37.55,87.19 48.84,130.48 49.38,130.89 61.34,130.89 61.88,130.48   73.17,87.19 73.17,130.34 73.72,130.89 79.91,130.89 80.46,130.34 80.46,81.12 79.91,80.57 68.16,80.57 67.63,80.98 55.36,126.47   43.09,80.98 42.56,80.57 30.81,80.57 30.26,81.12 30.26,130.34 30.81,130.89  "></polygon>	<polygon class="st0" points="88.24,130.89 88.79,130.34 88.79,85.8 106.37,130.54 106.88,130.89 119.19,130.89 119.74,130.34   119.74,81.12 119.19,80.57 113,80.57 112.45,81.12 112.45,126.06 94.45,80.92 93.94,80.57 82.05,80.57 81.5,81.12 81.5,130.34   82.05,130.89  "></polygon></g></svg>