<svg xmlns="http://www.w3.org/2000/svg" xmlns:xlink="http://www.w3.org/1999/xlink" id="Capa_1" x="0px" y="0px" viewBox="0 0 150 150" style="enable-background:new 0 0 150 150;" xml:space="preserve"><style type="text/css">	.st0{fill:#FD4A5C;}</style><path class="st0" d="M71.35,103.75l1,1c0.09,0.09,0.22,0.15,0.35,0.15h64.31c0.17,0,0.32-0.08,0.42-0.22l0.93-1.4 c0.09-0.14,0.11-0.32,0.04-0.47l-16.86-39.43l16.85-39.43c0.07-0.15,0.05-0.33-0.04-0.47l-0.92-1.39c-0.09-0.14-0.25-0.22-0.42-0.22 H93.38V9.49c0-0.28-0.22-0.5-0.5-0.5h-0.31l-0.21-0.65c-0.07-0.21-0.26-0.35-0.48-0.35H24.82c-0.13,0-0.26,0.05-0.35,0.15l-1,1 c-0.05,0.05-0.08,0.1-0.11,0.16c-0.03,0.06-0.04,0.13-0.04,0.19v80.05v49.47H11.99c-0.28,0-0.5,0.22-0.5,0.5v2 c0,0.28,0.22,0.5,0.5,0.5h125.02c0.28,0,0.5-0.22,0.5-0.5v-2c0-0.28-0.22-0.5-0.5-0.5H26.32V91.04H71.2v12.36 C71.2,103.53,71.25,103.66,71.35,103.75z M118.53,62.78c-0.03,0.06-0.04,0.13-0.04,0.2v0.79c0,0.07,0.01,0.13,0.04,0.2l16.21,37.93 H74.2V89.54V46.21l19.49,49.64c0.08,0.19,0.26,0.32,0.47,0.32h16.14c0.28,0,0.5-0.22,0.5-0.5V31.09c0-0.28-0.22-0.5-0.5-0.5h-8.11 c-0.28,0-0.5,0.22-0.5,0.5v60.12L77.64,30.9c-0.08-0.19-0.26-0.31-0.46-0.31H74.2v-5.74h60.54L118.53,62.78z M77.34,21.85 l13.04-9.42v9.42H77.34z M26.32,10.99h60.92L71.82,22.13c-0.18,0.13-0.25,0.35-0.18,0.56l0.05,0.16c-0.27,0.01-0.49,0.23-0.49,0.5 v39.77l-4.08,15.14L50.81,17.81c-0.06-0.22-0.26-0.37-0.48-0.37H34.92c-0.28,0-0.5,0.22-0.5,0.5V82.5c0,0.28,0.22,0.5,0.5,0.5h8.12 c0.28,0,0.5-0.22,0.5-0.5V24.14L58.8,82.63c0.06,0.22,0.26,0.37,0.48,0.37H71.2v5.04H26.32V10.99z"></path></svg>