<svg xmlns="http://www.w3.org/2000/svg" xmlns:xlink="http://www.w3.org/1999/xlink" id="Capa_1" x="0px" y="0px" viewBox="0 0 150 150" style="enable-background:new 0 0 150 150;" xml:space="preserve"><style type="text/css">	.st0{fill:#FD4A5C;}</style><path class="st0" d="M139.5,31.3c-0.45-0.09-40.98-9.02-60.41-24.57l-0.42-0.34h-6.32l-0.42,0.34C52.47,22.29,11.9,31.22,11.5,31.3 l-4.61,0.92v4.7c0,83.15,67.44,106.38,68.12,106.6l0.49,0.16l0.49-0.16c0.68-0.22,68.12-23.43,68.12-106.6v-4.7L139.5,31.3z  M141.01,34.76v2.16c0,2.33-0.06,4.61-0.16,6.84l-3.9-9.87c1.2,0.28,1.89,0.43,1.94,0.44L141.01,34.76z M140.32,50.88 c-0.83,8.27-2.39,15.83-4.49,22.75l-17.78-45.02c6.08,1.94,11.44,3.41,15.2,4.37L140.32,50.88z M107.67,119.43 c-4.73,4.49-9.44,8.14-13.76,11.08V19.24c4.5,2.15,9.18,4.08,13.76,5.78V119.43z M90.81,17.71v114.83 c-6.11,3.85-11.11,6.15-13.76,7.25V9.49h0.53C81.4,12.48,85.95,15.23,90.81,17.71z M73.42,9.49h0.53v130.3 c-2.65-1.1-7.66-3.4-13.76-7.25V17.71C65.05,15.23,69.6,12.48,73.42,9.49z M54.96,20.24l-23.04,86.45 c-3.42-4.51-6.65-9.55-9.54-15.17l17.6-65.27C44.88,24.51,50,22.5,54.96,20.24z M9.99,34.76l2.12-0.43 c0.21-0.04,11.07-2.42,24.32-6.87l-16.12,59.8C14.12,73.76,9.99,57.16,9.99,36.93V34.76z M34.31,109.72l22.78-85.45V130.5 C49.99,125.68,41.83,118.91,34.31,109.72z M110.77,116.36V26.15c1.16,0.41,2.32,0.81,3.45,1.2l20.1,50.9 C128.58,94.58,119.82,107.04,110.77,116.36z"></path></svg>