<svg xmlns="http://www.w3.org/2000/svg" xmlns:svg="http://www.w3.org/2000/svg" width="277.62125" height="82.587151" viewBox="0 0 73.453953 21.851183" id="svg1"><defs id="defs1"><clipPath clipPathUnits="userSpaceOnUse" id="clipPath31"><path d="M 0,1080 H 1920 V 0 H 0 Z" transform="translate(-1590.0553,-602.65622)" id="path31"></path></clipPath><clipPath clipPathUnits="userSpaceOnUse" id="clipPath33"><path d="M 0,1080 H 1920 V 0 H 0 Z" transform="translate(-1488.8346,-501.31972)" id="path33"></path></clipPath><clipPath clipPathUnits="userSpaceOnUse" id="clipPath35"><path d="M 0,1080 H 1920 V 0 H 0 Z" transform="translate(-1529.2602,-495.80541)" id="path35"></path></clipPath><clipPath clipPathUnits="userSpaceOnUse" id="clipPath37"><path d="M 0,1080 H 1920 V 0 H 0 Z" transform="translate(-1470.0894,-430.37181)" id="path37"></path></clipPath><clipPath clipPathUnits="userSpaceOnUse" id="clipPath39"><path d="M 0,1080 H 1920 V 0 H 0 Z" transform="translate(-1519.6438,-451.76921)" id="path39"></path></clipPath><clipPath clipPathUnits="userSpaceOnUse" id="clipPath41"><path d="M 0,1080 H 1920 V 0 H 0 Z" id="path41"></path></clipPath><clipPath clipPathUnits="userSpaceOnUse" id="clipPath43"><path d="M 0,1080 H 1920 V 0 H 0 Z" transform="translate(-1625.2329,-628.38791)" id="path43"></path></clipPath><clipPath clipPathUnits="userSpaceOnUse" id="clipPath45"><path d="M 0,1080 H 1920 V 0 H 0 Z" transform="translate(-1621.1761,-413.39061)" id="path45"></path></clipPath><clipPath clipPathUnits="userSpaceOnUse" id="clipPath47"><path d="M 0,1080 H 1920 V 0 H 0 Z" transform="translate(-1267.1442,-613.03202)" id="path47"></path></clipPath></defs><g id="layer1" transform="translate(-2.7223983,-11.769692)"><path id="path23" d="M 10.605214,30.034276 6.4944581,14.791765 H 2.7223985 V 30.598801 H 4.7100369 V 15.35629 L 8.6853682,30.598801 H 12.525058 L 16.500334,15.35629 v 15.242511 h 1.987639 V 14.791765 h -3.772007 z" style="fill:#000000 icc-color(sRGB-IEC61966-2, 0.1, 0, 0, 0);fill-opacity:1;fill-rule:nonzero;stroke:none;stroke-width:0.0546281"></path><path id="path24" d="M 29.114067,30.147116 22.993061,14.791852 H 19.175933 V 30.59878 h 1.987581 V 15.356269 l 5.985478,15.242511 h 3.952769 V 14.791852 h -1.987694 z" style="fill:#000000 icc-color(sRGB-IEC61966-2, 0.1, 0, 0, 0);fill-opacity:1;fill-rule:nonzero;stroke:none;stroke-width:0.0546281"></path><path id="path25" d="m 35.234827,30.520248 h 0.287781 V 14.76429 h -0.287781 z" style="fill:#000000 icc-color(sRGB-IEC61966-2, 0.1, 0, 0, 0);fill-opacity:1;fill-rule:nonzero;stroke:none;stroke-width:0.0546281"></path><path id="path26" d="m 66.759284,16.948519 0.595063,-1.684234 0.592822,1.684234 z m 0.344538,-2.120327 -1.260266,3.48406 h 0.453085 l 0.344537,-0.954076 h 1.428685 l 0.342191,0.954076 h 0.455432 l -1.260048,-3.48406 z" style="fill:#000000 icc-color(sRGB-IEC61966-2, 0.1, 0, 0, 0);fill-opacity:1;fill-rule:nonzero;stroke:none;stroke-width:0.0546281"></path><path id="path27" d="m 70.232229,15.565423 1.86975,2.746857 h 0.397693 v -3.484062 h -0.445818 v 2.708236 l -1.840909,-2.708236 h -0.426316 v 3.484062 h 0.4456 z" style="fill:#000000 icc-color(sRGB-IEC61966-2, 0.1, 0, 0, 0);fill-opacity:1;fill-rule:nonzero;stroke:none;stroke-width:0.0546281"></path><path id="path28" d="m 67.355526,21.886789 -1.067538,-2.978097 h -0.440794 l 1.240821,3.484062 h 0.537265 l 1.238579,-3.484062 h -0.441011 z" style="fill:#000000 icc-color(sRGB-IEC61966-2, 0.1, 0, 0, 0);fill-opacity:1;fill-rule:nonzero;stroke:none;stroke-width:0.0546281"></path><path id="path29" d="m 72.216576,19.301391 0.0024,-0.392666 h -2.197417 v 3.484061 h 2.243134 v -0.397582 l -1.797534,-0.0049 v -1.161336 h 1.575908 V 20.43868 h -1.573494 v -1.137299 z" style="fill:#000000 icc-color(sRGB-IEC61966-2, 0.1, 0, 0, 0);fill-opacity:1;fill-rule:nonzero;stroke:none;stroke-width:0.0546281"></path><path id="path30" d="m 0,0 h 15.838 c 4.056,0 7.254,-0.934 9.593,-2.801 2.334,-1.867 3.506,-4.683 3.506,-8.446 0,-3.853 -1.311,-6.757 -3.929,-8.712 -2.613,-1.954 -6.321,-2.933 -11.112,-2.933 H 0 Z m 0,-29.64 h 17.159 l 11.645,-27.479 h 8.646 l -12.53,28.935 c 2.03,0.764 3.987,1.845 5.867,3.242 1.883,1.397 3.432,3.241 4.655,5.534 1.219,2.295 1.828,5.177 1.828,8.646 0,3.616 -0.763,6.726 -2.291,9.328 -1.531,2.603 -3.84,4.602 -6.927,5.999 -3.088,1.397 -6.924,2.094 -11.51,2.094 H -8.157 V -57.119 H 0 Z" style="fill:#000000 icc-color(sRGB-IEC61966-2, 0.1, 0, 0, 0);fill-opacity:1;fill-rule:nonzero;stroke:none" transform="matrix(0.05462796,0,0,-0.05462796,73.868009,19.272503)" clip-path="url(#clipPath31)"></path><path id="path32" d="m 0,0 c -2.247,1.676 -5.268,2.955 -9.064,3.836 l -12.791,3.308 c -3.263,0.824 -5.734,1.986 -7.408,3.486 -1.678,1.5 -2.515,3.557 -2.515,6.175 0,2.851 1.168,5.314 3.506,7.386 2.339,2.075 5.786,3.11 10.346,3.11 2.525,0 4.864,-0.375 7.012,-1.123 2.143,-0.751 3.939,-1.972 5.382,-3.663 1.439,-1.69 2.29,-3.99 2.555,-6.901 h 8.381 c 0,3.204 -0.881,6.219 -2.647,9.042 -1.762,2.823 -4.358,5.101 -7.783,6.836 -3.425,1.734 -7.64,2.603 -12.636,2.603 -4.325,0 -8.198,-0.744 -11.623,-2.229 -3.425,-1.485 -6.138,-3.572 -8.139,-6.263 -2.001,-2.689 -3,-5.843 -3,-9.461 0,-3.263 0.647,-5.991 1.942,-8.181 1.293,-2.192 3.081,-3.956 5.36,-5.294 2.277,-1.338 4.901,-2.373 7.872,-3.109 l 13.142,-3.396 c 3.444,-0.942 5.984,-2.183 7.633,-3.727 1.645,-1.543 2.471,-3.581 2.471,-6.109 0,-2.294 -0.694,-4.256 -2.075,-5.888 -1.384,-1.632 -3.212,-2.875 -5.492,-3.726 -2.28,-0.854 -4.769,-1.28 -7.474,-1.28 -2.794,0 -5.36,0.411 -7.699,1.236 -2.335,0.822 -4.292,2.057 -5.866,3.704 -1.572,1.646 -2.622,3.675 -3.154,6.087 h -8.554 c 0.382,-2.941 1.314,-5.522 2.801,-7.741 1.483,-2.221 3.367,-4.081 5.643,-5.58 2.28,-1.5 4.816,-2.623 7.61,-3.374 2.794,-0.749 5.749,-1.125 8.866,-1.125 4.791,0 8.962,0.787 12.504,2.36 3.543,1.573 6.3,3.741 8.268,6.506 1.971,2.764 2.955,5.91 2.955,9.438 0,2.589 -0.492,4.991 -1.476,7.212 C 3.87,-3.625 2.25,-1.676 0,0" style="fill:#000000 icc-color(sRGB-IEC61966-2, 0.1, 0, 0, 0);fill-opacity:1;fill-rule:nonzero;stroke:none" transform="matrix(0.05462796,0,0,-0.05462796,68.338526,24.808308)" clip-path="url(#clipPath33)"></path><path id="path34" d="M 0,0 10.892,30.831 21.745,0 Z m 6.307,38.814 -23.07,-63.778 h 8.294 l 6.307,17.466 h 26.153 l 6.263,-17.466 h 8.338 L 15.526,38.814 Z" style="fill:#000000 icc-color(sRGB-IEC61966-2, 0.1, 0, 0, 0);fill-opacity:1;fill-rule:nonzero;stroke:none" transform="matrix(0.05462796,0,0,-0.05462796,70.546894,25.109543)" clip-path="url(#clipPath35)"></path><path id="path36" d="M 0,0 H -13.896 V 22.892 H 1.942 c 4.057,0 7.254,-0.935 9.593,-2.801 2.335,-1.867 3.506,-4.683 3.506,-8.446 0,-3.853 -1.311,-6.757 -3.928,-8.712 C 8.499,0.978 4.791,0 0,0 m 16.891,-2.05 c 1.884,1.397 3.433,3.241 4.655,5.534 1.219,2.294 1.829,5.176 1.829,8.646 0,3.616 -0.764,6.725 -2.291,9.328 -1.531,2.603 -3.84,4.602 -6.928,5.999 -3.087,1.397 -6.924,2.094 -11.509,2.094 h -24.7 v -63.778 h 8.157 v 27.479 h 17.16 l 11.645,-27.479 h 8.645 L 11.025,-5.292 c 2.03,0.763 3.987,1.845 5.866,3.242" style="fill:#000000 icc-color(sRGB-IEC61966-2, 0.1, 0, 0, 0);fill-opacity:1;fill-rule:nonzero;stroke:none" transform="matrix(0.05462796,0,0,-0.05462796,67.314518,28.684048)" clip-path="url(#clipPath37)"></path><path id="path38" d="M 0,0 H 16.452 V -47.467 H 0 v -8.157 h 16.452 8.157 16.454 v 8.157 H 24.609 V 0 H 41.063 V 8.157 H 0 Z" style="fill:#000000 icc-color(sRGB-IEC61966-2, 0.1, 0, 0, 0);fill-opacity:1;fill-rule:nonzero;stroke:none" transform="matrix(0.05462796,0,0,-0.05462796,70.021573,27.515152)" clip-path="url(#clipPath39)"></path><path id="path40" d="m 1584.17,498.652 h 41.063 v 8.157 h -41.063 z" style="fill:#000000 icc-color(sRGB-IEC61966-2, 0.1, 0, 0, 0);fill-opacity:1;fill-rule:nonzero;stroke:none" transform="matrix(0.05462796,0,0,-0.05462796,-12.993463,52.194382)" clip-path="url(#clipPath41)"></path><path id="path42" d="M 0,0 H -16.453 V 47.467 H 0 v 8.157 H -16.453 -24.61 -41.063 V 47.467 H -24.61 V 0 H -41.063 V -8.157 H 0 Z" style="fill:#000000 icc-color(sRGB-IEC61966-2, 0.1, 0, 0, 0);fill-opacity:1;fill-rule:nonzero;stroke:none" transform="matrix(0.05462796,0,0,-0.05462796,75.789691,17.866833)" clip-path="url(#clipPath43)"></path><path id="path44" d="m 0,0 c -1.457,-3.765 -3.565,-6.542 -6.329,-8.336 -2.765,-1.795 -6.116,-2.691 -10.056,-2.691 -3.884,0 -7.221,0.896 -10.015,2.691 -2.793,1.794 -4.937,4.571 -6.439,8.336 -1.498,3.763 -2.25,8.572 -2.25,14.424 0,5.909 0.752,10.775 2.25,14.599 1.502,3.821 3.646,6.659 6.439,8.513 2.794,1.852 6.131,2.777 10.015,2.777 3.91,0 7.247,-0.919 10.012,-2.755 2.764,-1.839 4.879,-4.669 6.351,-8.491 C 1.447,25.243 2.184,20.362 2.184,14.424 2.184,8.572 1.454,3.763 0,0 m 7.783,32.352 c -2.232,4.896 -5.408,8.63 -9.527,11.203 -4.115,2.574 -8.998,3.86 -14.641,3.86 -5.616,0 -10.507,-1.294 -14.666,-3.882 -4.163,-2.586 -7.376,-6.329 -9.637,-11.225 -2.265,-4.895 -3.396,-10.828 -3.396,-17.796 0,-6.911 1.124,-12.799 3.374,-17.666 2.247,-4.866 5.444,-8.577 9.593,-11.136 4.145,-2.559 9.057,-3.839 14.732,-3.839 5.672,0 10.57,1.28 14.685,3.839 4.119,2.559 7.288,6.27 9.505,11.136 2.221,4.867 3.33,10.755 3.33,17.666 0,6.998 -1.116,12.945 -3.352,17.84" style="fill:#000000 icc-color(sRGB-IEC61966-2, 0.1, 0, 0, 0);fill-opacity:1;fill-rule:nonzero;stroke:none" transform="matrix(0.05462796,0,0,-0.05462796,75.568076,29.611696)" clip-path="url(#clipPath45)"></path><path id="path46" d="m 0,0 c -32.05,0 -61.501,-11.058 -84.783,-29.552 4.291,12.196 6.629,25.311 6.629,38.976 0,9.123 -1.073,17.99 -3.041,26.515 H 75.431 V 70.98 H -95.2 v -0.561 c -20.621,33.904 -57.915,56.549 -100.499,56.549 -64.916,0 -117.543,-52.626 -117.543,-117.544 0,-28.751 10.323,-55.09 27.462,-75.516 2.211,-2.634 4.562,-5.143 6.993,-7.573 l 24.771,24.771 c -1.702,1.703 -3.358,3.464 -4.921,5.327 -12.423,14.803 -19.264,33.623 -19.264,52.991 0,45.492 37.01,82.503 82.502,82.503 45.489,-0.005 82.504,-37.014 82.504,-82.503 0,-30.489 -16.638,-57.148 -41.299,-71.43 l 0.011,-0.017 -145.764,-87.692 v -31.963 -5.919 -29.122 h 170.63 v 35.041 h -160.487 l 153.113,89.333 0.02,-0.036 c 0.424,0.246 0.826,0.525 1.249,0.776 l 2.725,1.59 -0.05,0.075 c 2.193,1.385 4.335,2.837 6.426,4.36 -2.55,-6.335 -4.665,-12.892 -6.251,-19.657 l 34.115,-8.031 c 10.542,44.781 50.805,78.227 98.757,78.227 55.955,0 101.477,-45.522 101.477,-101.475 0,-55.953 -45.522,-101.475 -101.477,-101.475 -22.915,0 -44.815,7.701 -62.514,21.564 l -21.596,-27.604 c 23.184,-18.162 52.377,-29.001 84.11,-29.001 75.396,0 136.517,61.12 136.517,136.516 C 136.517,-61.12 75.396,0 0,0" style="fill:#000000 icc-color(sRGB-IEC61966-2, 0.1, 0, 0, 0);fill-opacity:1;fill-rule:nonzero;stroke:none" transform="matrix(0.05462796,0,0,-0.05462796,56.228036,18.705694)" clip-path="url(#clipPath47)"></path></g></svg>