<svg xmlns="http://www.w3.org/2000/svg" id="Clienres" viewBox="0 0 31.99 31.03"><defs><style>      .cls-1 {        fill: none;        stroke: #000;        stroke-miterlimit: 10;        stroke-width: 2px;      }      .cls-2 {        fill: #000;        stroke-width: 0px;      }    </style></defs><path class="cls-1" d="M15.99,18.03c-7.57,0-13.82,5.06-14.84,12h14.84"></path><path class="cls-1" d="M23.99,5.12v4.66c0,4.42-3.58,8.25-8,8.25s-8-3.83-8-8.25v-4.66"></path><path class="cls-1" d="M23.99,7.94c0,1.66-3.58,3.09-8,3.09s-8-1.44-8-3.09"></path><polygon class="cls-1" points="15.99 8.03 3.99 4.03 15.99 1.03 27.99 4.03 15.99 8.03"></polygon><line class="cls-1" x1="3.99" y1="4.03" x2="3.99" y2="14.03"></line><g><path class="cls-2" d="M25.02,29.69c-1.52,0-2.95-.59-4.02-1.67-2.22-2.22-2.22-5.82,0-8.04,2.22-2.22,5.82-2.22,8.04,0,1.07,1.07,1.67,2.5,1.67,4.02s-.59,2.95-1.67,4.02h0c-1.07,1.07-2.5,1.67-4.02,1.67ZM25.02,20.32c-.94,0-1.89.36-2.61,1.08-1.44,1.44-1.44,3.77,0,5.21s3.82,1.39,5.21,0h0c.7-.7,1.08-1.62,1.08-2.61s-.38-1.91-1.08-2.61-1.66-1.08-2.61-1.08Z"></path><rect class="cls-2" x="24.02" y="17.07" width="2" height="2.25"></rect><rect class="cls-2" x="24.02" y="28.79" width="2" height="2.25"></rect><rect class="cls-2" x="29.75" y="23.05" width="2.25" height="2"></rect><rect class="cls-2" x="18.04" y="23.05" width="2.25" height="2"></rect><rect class="cls-2" x="28.16" y="27.07" width="2" height="2.24" transform="translate(-11.4 28.87) rotate(-45)"></rect><rect class="cls-2" x="19.87" y="18.79" width="2" height="2.25" transform="translate(-7.96 20.6) rotate(-45.01)"></rect><rect class="cls-2" x="28.03" y="18.91" width="2.24" height="2" transform="translate(-5.54 26.45) rotate(-45)"></rect><rect class="cls-2" x="19.75" y="27.19" width="2.25" height="2" transform="translate(-13.82 23.02) rotate(-45)"></rect></g></svg>