<svg xmlns:dc="http://purl.org/dc/elements/1.1/" xmlns:cc="http://creativecommons.org/ns#" xmlns:rdf="http://www.w3.org/1999/02/22-rdf-syntax-ns#" xmlns:svg="http://www.w3.org/2000/svg" xmlns="http://www.w3.org/2000/svg" viewBox="0 0 42.666668 42.666668" height="42.666668" width="42.666668" xml:space="preserve" id="svg2"><metadata></metadata><defs id="defs6"></defs><g transform="matrix(1.3333333,0,0,-1.3333333,0,42.666667)" id="g10"><g transform="translate(23.0004,32.0004)" id="g12"><path id="path14" style="fill:#000000;fill-opacity:1;fill-rule:nonzero;stroke:none" d="M 0,0 V -3.001 H -14 V 0 h -2 v -3.001 h -7 V -8 -32 H 9 V -3.001 H 2 V 0 Z m 2,-6 v 1 h 4.999 v -3 h -28 v 3 H -16 v -1 h 2 v 1 H 0 v -1 z m -23.001,-4.001 h 28 v -20 h -28 z"></path></g><path id="path16" style="fill:#000000;fill-opacity:1;fill-rule:nonzero;stroke:none" d="m 25,19 h -2 v -2 h 2 z"></path><path id="path18" style="fill:#000000;fill-opacity:1;fill-rule:nonzero;stroke:none" d="m 21,19 h -2 v -2 h 2 z"></path><path id="path20" style="fill:#000000;fill-opacity:1;fill-rule:nonzero;stroke:none" d="m 17,19 h -2 v -2 h 2 z"></path><path id="path22" style="fill:#000000;fill-opacity:1;fill-rule:nonzero;stroke:none" d="m 13,19 h -2 v -2 h 2 z"></path><path id="path24" style="fill:#000000;fill-opacity:1;fill-rule:nonzero;stroke:none" d="M 9,19 H 7 v -2 h 2 z"></path><path id="path26" style="fill:#000000;fill-opacity:1;fill-rule:nonzero;stroke:none" d="m 25,15 h -2 v -2 h 2 z"></path><path id="path28" style="fill:#000000;fill-opacity:1;fill-rule:nonzero;stroke:none" d="m 21,15 h -2 v -2 h 2 z"></path><path id="path30" style="fill:#000000;fill-opacity:1;fill-rule:nonzero;stroke:none" d="m 17,15 h -2 v -2 h 2 z"></path><path id="path32" style="fill:#000000;fill-opacity:1;fill-rule:nonzero;stroke:none" d="m 13,15 h -2 v -2 h 2 z"></path><path id="path34" style="fill:#000000;fill-opacity:1;fill-rule:nonzero;stroke:none" d="M 9,15 H 7 v -2 h 2 z"></path><path id="path36" style="fill:#000000;fill-opacity:1;fill-rule:nonzero;stroke:none" d="M 25,11 H 23 V 9 h 2 z"></path><path id="path38" style="fill:#000000;fill-opacity:1;fill-rule:nonzero;stroke:none" d="M 21,11 H 19 V 9 h 2 z"></path><path id="path40" style="fill:#000000;fill-opacity:1;fill-rule:nonzero;stroke:none" d="M 17,11 H 15 V 9 h 2 z"></path><path id="path42" style="fill:#000000;fill-opacity:1;fill-rule:nonzero;stroke:none" d="M 13,11 H 11 V 9 h 2 z"></path><path id="path44" style="fill:#000000;fill-opacity:1;fill-rule:nonzero;stroke:none" d="M 9,11 H 7 V 9 h 2 z"></path><path id="path46" style="fill:#000000;fill-opacity:1;fill-rule:nonzero;stroke:none" d="M 25,7 H 23 V 5 h 2 z"></path><path id="path48" style="fill:#000000;fill-opacity:1;fill-rule:nonzero;stroke:none" d="M 21,7 H 19 V 5 h 2 z"></path><path id="path50" style="fill:#000000;fill-opacity:1;fill-rule:nonzero;stroke:none" d="M 17,7 H 15 V 5 h 2 z"></path><path id="path52" style="fill:#000000;fill-opacity:1;fill-rule:nonzero;stroke:none" d="M 13,7 H 11 V 5 h 2 z"></path><path id="path54" style="fill:#000000;fill-opacity:1;fill-rule:nonzero;stroke:none" d="M 9,7 H 7 V 5 h 2 z"></path></g></svg>