<svg xmlns:inkscape="http://www.inkscape.org/namespaces/inkscape" xmlns:sodipodi="http://sodipodi.sourceforge.net/DTD/sodipodi-0.dtd" xmlns="http://www.w3.org/2000/svg" xmlns:svg="http://www.w3.org/2000/svg" id="svg2" xml:space="preserve" width="40" height="42.666664" viewBox="0 0 40 42.666664" sodipodi:docname="72092fa383ad01d2d042b8f74f101c01.ai"><defs id="defs6"><clipPath clipPathUnits="userSpaceOnUse" id="clipPath16"><path d="M 0,32 H 32 V 0 H 0 Z" id="path14"></path></clipPath></defs><g id="g8" inkscape:groupmode="layer" inkscape:label="72092fa383ad01d2d042b8f74f101c01" transform="matrix(1.3333333,0,0,-1.3333333,-1.3333333,42.666666)"><g id="g10"><g id="g12" clip-path="url(#clipPath16)"><g id="g18" transform="translate(8,31)"><path d="m 0,0 h 16 v -16 c 0,-4.418 -3.582,-8 -8,-8 -4.418,0 -8,3.582 -8,8 z" style="fill:none;stroke:#000000;stroke-width:2;stroke-linecap:butt;stroke-linejoin:miter;stroke-miterlimit:10;stroke-dasharray:none;stroke-opacity:1" id="path20"></path></g><g id="g22" transform="translate(16,7)"><path d="M 0,0 V -6" style="fill:none;stroke:#000000;stroke-width:2;stroke-linecap:butt;stroke-linejoin:miter;stroke-miterlimit:10;stroke-dasharray:none;stroke-opacity:1" id="path24"></path></g><g id="g26" transform="translate(11,1)"><path d="M 0,0 H 10" style="fill:none;stroke:#000000;stroke-width:2;stroke-linecap:butt;stroke-linejoin:miter;stroke-miterlimit:10;stroke-dasharray:none;stroke-opacity:1" id="path28"></path></g><g id="g30" transform="translate(24,17)"><path d="m 0,0 c 3.314,0 6,2.686 6,6 v 4 H 0" style="fill:none;stroke:#000000;stroke-width:2;stroke-linecap:butt;stroke-linejoin:miter;stroke-miterlimit:10;stroke-dasharray:none;stroke-opacity:1" id="path32"></path></g><g id="g34" transform="translate(8,17)"><path d="m 0,0 c -3.314,0 -6,2.686 -6,6 v 4 h 6" style="fill:none;stroke:#000000;stroke-width:2;stroke-linecap:butt;stroke-linejoin:miter;stroke-miterlimit:10;stroke-dasharray:none;stroke-opacity:1" id="path36"></path></g></g></g></g></svg>