<svg xmlns="http://www.w3.org/2000/svg" id="Clienres" viewBox="0 0 31.69 32"><defs><style>      .cls-1 {        fill: none;        stroke: #000;        stroke-miterlimit: 10;        stroke-width: 2px;      }      .cls-2 {        fill: #000;        stroke-width: 0px;      }    </style></defs><g><circle class="cls-1" cx="16" cy="9.5" r="8.5"></circle><g><path class="cls-1" d="M18,14.5c-2.76,0-5-2.24-5-5s2.24-5,5-5"></path><line class="cls-1" x1="20" y1="11" x2="10.05" y2="11"></line><line class="cls-1" x1="20" y1="8" x2="10.05" y2="8"></line></g></g><path class="cls-2" d="M19.41,32H0v-5.41l5.59-6.59h10.41v1c0,1.12-.37,2.16-1,3h3.59l3.71-3.71c3.47-3.47,7.96-1.28,8.15-1.19l1.24.62-12.27,12.27ZM2,30h16.59l9.55-9.55c-1.21-.23-2.97-.2-4.43,1.26l-4.29,4.29h-9.41v-2h1c1.3,0,2.42-.84,2.83-2h-7.41l-4.41,5.41v2.59Z"></path></svg>