<svg xmlns="http://www.w3.org/2000/svg" id="Capa_1" data-name="Capa 1" viewBox="0 0 24 32"><defs><style>      .cls-1 {        fill: none;        stroke: #000;        stroke-miterlimit: 10;        stroke-width: 2px;      }    </style></defs><polyline class="cls-1" points="18.5 3 23 3 23 31 1 31 1 3 5.5 3"></polyline><line class="cls-1" x1="14" y1="11" x2="4" y2="11"></line><polyline class="cls-1" points="18.5 3 23 3 23 31 1 31 1 3 5.5 3"></polyline><rect class="cls-1" x="6" y="1" width="12" height="4"></rect><polyline class="cls-1" points="20.07 8.9 16.97 12 15.54 10.57"></polyline><line class="cls-1" x1="14" y1="25" x2="4" y2="25"></line><polyline class="cls-1" points="20.07 22.9 16.97 26 15.54 24.57"></polyline><line class="cls-1" x1="14" y1="18" x2="4" y2="18"></line><line class="cls-1" x1="20.07" y1="15.9" x2="16" y2="19.97"></line><line class="cls-1" x1="16" y1="15.9" x2="20.07" y2="19.97"></line></svg>