<svg xmlns:xlink="http://www.w3.org/1999/xlink" xmlns="http://www.w3.org/2000/svg" xmlns:svg="http://www.w3.org/2000/svg" id="svg1" width="42.666668" height="42.666668" viewBox="0 0 42.666668 42.666668"><defs id="defs1"><clipPath clipPathUnits="userSpaceOnUse" id="clipPath2"><path d="M 0,32 H 32 V 0 H 0 Z" transform="translate(-17.4141,-14.5859)" id="path2"></path></clipPath><clipPath clipPathUnits="userSpaceOnUse" id="clipPath4"><path d="M 0,32 H 32 V 0 H 0 Z" transform="translate(-27.313501,-27.313501)" id="path4"></path></clipPath><clipPath clipPathUnits="userSpaceOnUse" id="clipPath6"><path d="M 0,32 H 32 V 0 H 0 Z" transform="translate(-24.6631,-5.0000001)" id="path6"></path></clipPath></defs><g id="layer-MC0"><path id="path1" d="m 0,0 c -0.756,-0.756 -2.072,-0.756 -2.828,0 -0.378,0.378 -0.586,0.88 -0.586,1.414 0,0.534 0.208,1.036 0.586,1.414 0.378,0.378 0.88,0.586 1.414,0.586 C -0.88,3.414 -0.378,3.206 0,2.828 0.378,2.45 0.586,1.948 0.586,1.414 0.586,0.88 0.378,0.378 0,0 M 4.243,8.485 0.599,4.841 C -0.923,5.7 -2.976,5.51 -4.242,4.242 -4.998,3.487 -5.414,2.482 -5.414,1.414 c 0,-1.068 0.416,-2.073 1.172,-2.828 0.755,-0.756 1.76,-1.172 2.828,-1.172 1.068,0 2.073,0.416 2.828,1.172 0.756,0.755 1.172,1.76 1.172,2.828 0,0.725 -0.206,1.413 -0.565,2.021 l 3.636,3.636 z" style="fill:#000000 icc-color(sRGB-IEC61966-2, 0.1, 0, 0, 0);fill-opacity:1;fill-rule:nonzero;stroke:none" transform="matrix(1.3333333,0,0,-1.3333333,23.2188,23.2188)" clip-path="url(#clipPath2)"></path><path id="path3" d="m 0,0 c -3.021,3.022 -7.04,4.687 -11.313,4.687 -4.274,0 -8.292,-1.665 -11.314,-4.687 -3.022,-3.022 -4.686,-7.04 -4.686,-11.313 v -1 h 4 v 2 h -1.965 c 0.212,3.031 1.397,5.867 3.389,8.161 l 1.383,-1.383 1.414,1.414 -1.379,1.38 c 2.293,1.992 5.128,3.166 8.158,3.379 V 0.687 h 2 v 1.951 c 3.029,-0.213 5.864,-1.387 8.157,-3.379 l -1.379,-1.38 1.414,-1.414 1.383,1.383 c 1.993,-2.294 3.177,-5.13 3.389,-8.161 H 0.687 v -2 h 4 v 1 C 4.687,-7.04 3.022,-3.022 0,0" style="fill:#000000 icc-color(sRGB-IEC61966-2, 0.1, 0, 0, 0);fill-opacity:1;fill-rule:nonzero;stroke:none" transform="matrix(1.3333333,0,0,-1.3333333,36.418,6.2486667)" clip-path="url(#clipPath4)"></path><path id="path5" d="m 0,0 c -2.459,-1.945 -5.479,-3 -8.663,-3 -3.184,0 -6.204,1.055 -8.663,3 z m -20.464,0.211 c 0.158,-0.178 0.318,-0.355 0.487,-0.524 3.022,-3.023 7.04,-4.687 11.314,-4.687 4.273,0 8.292,1.664 11.311,4.685 0.152,0.15 0.29,0.308 0.429,0.466 L 4.736,2 h -26.808 z" style="fill:#000000 icc-color(sRGB-IEC61966-2, 0.1, 0, 0, 0);fill-opacity:1;fill-rule:nonzero;stroke:none" transform="matrix(1.3333333,0,0,-1.3333333,32.884133,36)" clip-path="url(#clipPath6)"></path></g></svg>