<svg xmlns:inkscape="http://www.inkscape.org/namespaces/inkscape" xmlns:sodipodi="http://sodipodi.sourceforge.net/DTD/sodipodi-0.dtd" xmlns="http://www.w3.org/2000/svg" xmlns:svg="http://www.w3.org/2000/svg" id="svg2" xml:space="preserve" width="42.666664" height="42.666664" viewBox="0 0 42.666664 42.666664" sodipodi:docname="3ec06aae77432b21694a88381a1cc49c.ai"><defs id="defs6"><clipPath clipPathUnits="userSpaceOnUse" id="clipPath16"><path d="M 0,32 H 32 V 0 H 0 Z" id="path14"></path></clipPath><clipPath clipPathUnits="userSpaceOnUse" id="clipPath32"><path d="M 0,32 H 32 V 0 H 0 Z" id="path30"></path></clipPath></defs><g id="g8" inkscape:groupmode="layer" inkscape:label="3ec06aae77432b21694a88381a1cc49c" transform="matrix(1.3333333,0,0,-1.3333333,0,42.666666)"><g id="g10"><g id="g12" clip-path="url(#clipPath16)"><g id="g18" transform="translate(23,27)"><path d="m 0,0 h -18 c -2.209,0 -4,-1.791 -4,-4 v -18 c 0,-2.209 1.791,-4 4,-4 H 4 c 2.209,0 4,1.791 4,4 V -4 C 8,-1.791 6.209,0 4,0 H 3.036" style="fill:none;stroke:#000000;stroke-width:2;stroke-linecap:butt;stroke-linejoin:miter;stroke-miterlimit:10;stroke-dasharray:none;stroke-opacity:1" id="path20"></path></g></g></g><text transform="matrix(1,0,0,-1,3.9307,7.4492)" style="font-variant:normal;font-weight:bold;font-stretch:normal;font-size:18px;font-family:N27;-inkscape-font-specification:N27-Bold;writing-mode:lr-tb;fill:#000000;fill-opacity:1;fill-rule:nonzero;stroke:none" id="text24"><tspan x="0" y="0" id="tspan22">W</tspan></text><g id="g26"><g id="g28" clip-path="url(#clipPath32)"><g id="g34" transform="translate(23,31)"><path d="M 0,0 -0.036,-20 1.5,-22.178 3.036,-20 3,0 Z" style="fill:none;stroke:#000000;stroke-width:2;stroke-linecap:butt;stroke-linejoin:miter;stroke-miterlimit:10;stroke-dasharray:none;stroke-opacity:1" id="path36"></path></g></g></g></g></svg>