<svg xmlns:xlink="http://www.w3.org/1999/xlink" xmlns="http://www.w3.org/2000/svg" xmlns:svg="http://www.w3.org/2000/svg" id="svg1" width="42.666668" height="42.666668" viewBox="0 0 42.666668 42.666668"><defs id="defs1"><clipPath clipPathUnits="userSpaceOnUse" id="clipPath3"><path d="M 0,32 H 32 V 0 H 0 Z" transform="translate(-6.7881002,-10.143101)" id="path3"></path></clipPath></defs><g id="layer-MC0"><path id="path1" d="m 0,0 v -26.376 l 4.5,-5.143 4.5,5.143 V 0 Z M 2,-2.001 H 6.999 V -5.015 H 2 Z M 2,-7.015 H 6.999 V -24.001 H 2 Z M 2.328,-26 H 6.671 L 4.5,-28.481 Z" style="fill:#000000 icc-color(sRGB-IEC61966-2, 0.1, 0, 0, 0);fill-opacity:1;fill-rule:nonzero;stroke:none" transform="matrix(1.3333333,0,0,-1.3333333,30.6672,-5.3333333e-4)"></path><path id="path2" d="m 0,0 c -0.453,2.452 -0.788,5.182 -0.788,6.857 0,5.682 1.185,11.475 2.048,12.831 C 1.841,18.654 2.089,14.751 2.214,12.793 2.597,6.779 1.47,2.574 0,0 m 12.087,-4.715 c -0.937,1.674 -1.998,3.572 -4.875,3.572 -1.469,0 -2.804,-1.263 -4.096,-2.485 -0.495,-0.469 -1.274,-1.206 -1.71,-1.441 -0.263,0.41 -0.553,1.283 -0.834,2.396 2.304,2.785 4.123,7.952 3.638,15.593 -0.318,4.993 -0.569,8.937 -2.998,8.937 -3.702,0 -4,-14.85 -4,-15 0,-0.083 0.261,-4.999 1.154,-8.981 -0.65,-0.599 -1.288,-0.927 -1.83,-0.999 -0.726,-0.094 -1.169,0.303 -1.344,1.176 l -1.961,-0.392 c 0.384,-1.914 1.784,-3.004 3.565,-2.766 0.686,0.089 1.415,0.386 2.137,0.891 0.569,-1.714 1.314,-2.929 2.279,-2.929 1.099,0 2.109,0.956 3.279,2.062 0.864,0.818 2.048,1.938 2.721,1.938 1.628,0 2.192,-0.874 3.13,-2.549 1.109,-1.983 2.49,-4.451 6.87,-4.451 v 2 c -3.207,0 -4.096,1.588 -5.125,3.428" style="fill:#000000 icc-color(sRGB-IEC61966-2, 0.1, 0, 0, 0);fill-opacity:1;fill-rule:nonzero;stroke:none" transform="matrix(1.3333333,0,0,-1.3333333,9.0508,29.142533)" clip-path="url(#clipPath3)"></path></g></svg>