<svg xmlns:xlink="http://www.w3.org/1999/xlink" xmlns="http://www.w3.org/2000/svg" xmlns:svg="http://www.w3.org/2000/svg" id="svg1" width="42.666668" height="42.666668" viewBox="0 0 42.666668 42.666668"><defs id="defs1"><clipPath clipPathUnits="userSpaceOnUse" id="clipPath5"><path d="M 0,32 H 32 V 0 H 0 Z" transform="translate(-5.0420002,-4.7768999)" id="path5"></path></clipPath><clipPath clipPathUnits="userSpaceOnUse" id="clipPath7"><path d="M 0,32 H 32 V 0 H 0 Z" transform="translate(-10.082001,-3.8677003)" id="path7"></path></clipPath><clipPath clipPathUnits="userSpaceOnUse" id="clipPath9"><path d="M 0,32 H 32 V 0 H 0 Z" id="path9"></path></clipPath><clipPath clipPathUnits="userSpaceOnUse" id="clipPath11"><path d="M 0,32 H 32 V 0 H 0 Z" transform="translate(-17.5615,-5.6323004)" id="path11"></path></clipPath><clipPath clipPathUnits="userSpaceOnUse" id="clipPath13"><path d="M 0,32 H 32 V 0 H 0 Z" transform="translate(-19.5859,-7.5317999)" id="path13"></path></clipPath><clipPath clipPathUnits="userSpaceOnUse" id="clipPath15"><path d="M 0,32 H 32 V 0 H 0 Z" transform="translate(-25.093801,-4.0747004)" id="path15"></path></clipPath><clipPath clipPathUnits="userSpaceOnUse" id="clipPath17"><path d="M 0,32 H 32 V 0 H 0 Z" transform="translate(-27.856401,-3.6518998)" id="path17"></path></clipPath></defs><g id="layer-MC0"><path id="path1" d="M 0,0 -4.635,-17.186 -9.27,0 h -4.253 v -17.824 h 2.241 v 17.188 l 4.483,-17.188 h 4.328 L 2.012,-0.636 V -17.824 H 4.253 V 0 Z" style="fill:#000000 icc-color(sRGB-IEC61966-2, 0.1, 0, 0, 0);fill-opacity:1;fill-rule:nonzero;stroke:none" transform="matrix(1.3333333,0,0,-1.3333333,18.0312,2.6670667)"></path><path id="path2" d="M 0,0 V -17.314 L -6.902,0 h -4.304 v -17.824 h 2.241 v 17.188 l 6.749,-17.188 H 2.242 V 0 Z" style="fill:#000000 icc-color(sRGB-IEC61966-2, 0.1, 0, 0, 0);fill-opacity:1;fill-rule:nonzero;stroke:none" transform="matrix(1.3333333,0,0,-1.3333333,39.678,2.6670667)"></path><path id="path3" d="m 0,0 v -1.369 l 3.781,-1.963 v 0.83 l -3.557,1.818 3.557,1.818 v 0.829 z" style="fill:#000000 icc-color(sRGB-IEC61966-2, 0.1, 0, 0, 0);fill-opacity:1;fill-rule:nonzero;stroke:none" transform="matrix(1.3333333,0,0,-1.3333333,0.4836,34.461067)"></path><path id="path4" d="m 0,0 v 0.909 c 0,1.225 0.747,1.927 1.899,1.927 1.08,0 1.864,-0.612 1.882,-1.702 H 3.016 C 2.998,1.818 2.503,2.115 1.899,2.115 1.233,2.115 0.766,1.756 0.766,0.909 V 0 c 0,-0.937 0.467,-1.206 1.133,-1.206 0.604,0 1.099,0.225 1.117,0.963 H 3.781 C 3.763,-1.314 2.971,-1.927 1.899,-1.927 0.747,-1.927 0,-1.225 0,0" style="fill:#000000 icc-color(sRGB-IEC61966-2, 0.1, 0, 0, 0);fill-opacity:1;fill-rule:nonzero;stroke:none" transform="matrix(1.3333333,0,0,-1.3333333,6.7226667,36.297467)" clip-path="url(#clipPath5)"></path><path id="path6" d="M 0,0 V 5.726 H 0.765 V -0.216 H 1.548 V -0.937 H 1.044 C 0.333,-0.937 0,-0.567 0,0" style="fill:#000000 icc-color(sRGB-IEC61966-2, 0.1, 0, 0, 0);fill-opacity:1;fill-rule:nonzero;stroke:none" transform="matrix(1.3333333,0,0,-1.3333333,13.442667,37.509733)" clip-path="url(#clipPath7)"></path><path id="path8" d="m 12.575,7.532 h 0.756 V 2.931 h -0.756 z m -0.046,1.836 h 0.847 V 8.486 h -0.847 z" style="fill:#000000 icc-color(sRGB-IEC61966-2, 0.1, 0, 0, 0);fill-opacity:1;fill-rule:nonzero;stroke:none" transform="matrix(1.3333333,0,0,-1.3333333,0,42.666667)" clip-path="url(#clipPath9)"></path><path id="path10" d="M 0,0 V 0.054 C -0.018,0.972 -0.513,1.278 -1.116,1.278 -1.782,1.278 -2.25,0.972 -2.25,0.054 V 0 Z m -3.016,-0.855 v 0.909 c 0,1.224 0.747,1.926 1.9,1.926 1.08,0 1.863,-0.612 1.882,-1.926 v -0.73 H -2.25 v -0.179 c 0,-0.937 0.468,-1.207 1.134,-1.207 0.558,0 1.026,0.198 1.107,0.81 h 0.766 c -0.081,-0.972 -0.856,-1.53 -1.873,-1.53 -1.153,0 -1.9,0.702 -1.9,1.927" style="fill:#000000 icc-color(sRGB-IEC61966-2, 0.1, 0, 0, 0);fill-opacity:1;fill-rule:nonzero;stroke:none" transform="matrix(1.3333333,0,0,-1.3333333,23.415333,35.156933)" clip-path="url(#clipPath11)"></path><path id="path12" d="m 0,0 h 0.765 v -0.469 c 0.243,0.343 0.684,0.55 1.297,0.55 1.016,0 1.692,-0.685 1.692,-1.737 V -4.601 H 2.988 v 2.773 c 0,0.774 -0.369,1.188 -1.097,1.188 -0.613,0 -1.126,-0.333 -1.126,-1.188 V -4.601 H 0 Z" style="fill:#000000 icc-color(sRGB-IEC61966-2, 0.1, 0, 0, 0);fill-opacity:1;fill-rule:nonzero;stroke:none" transform="matrix(1.3333333,0,0,-1.3333333,26.114533,32.624267)" clip-path="url(#clipPath13)"></path><path id="path14" d="M 0,0 V 2.736 H -0.675 V 3.457 H 0.019 V 4.483 H 0.766 V 3.457 H 1.891 V 2.736 H 0.766 V -0.423 H 1.909 V -1.144 H 1.225 C 0.315,-1.144 0,-0.631 0,0" style="fill:#000000 icc-color(sRGB-IEC61966-2, 0.1, 0, 0, 0);fill-opacity:1;fill-rule:nonzero;stroke:none" transform="matrix(1.3333333,0,0,-1.3333333,33.4584,37.233733)" clip-path="url(#clipPath15)"></path><path id="path16" d="M 0,0 3.556,1.818 0,3.637 V 4.465 L 3.781,2.502 V 1.134 L 0,-0.829 Z" style="fill:#000000 icc-color(sRGB-IEC61966-2, 0.1, 0, 0, 0);fill-opacity:1;fill-rule:nonzero;stroke:none" transform="matrix(1.3333333,0,0,-1.3333333,37.141867,37.797467)" clip-path="url(#clipPath17)"></path></g></svg>