<svg xmlns:xlink="http://www.w3.org/1999/xlink" xmlns="http://www.w3.org/2000/svg" xmlns:svg="http://www.w3.org/2000/svg" id="svg1" width="42.666668" height="42.666668" viewBox="0 0 42.666668 42.666668"><defs id="defs1"><clipPath clipPathUnits="userSpaceOnUse" id="clipPath2"><path d="M 0,32 H 32 V 0 H 0 Z" transform="translate(-28,-2)" id="path2"></path></clipPath><clipPath clipPathUnits="userSpaceOnUse" id="clipPath4"><path d="M 0,32 H 32 V 0 H 0 Z" id="path4"></path></clipPath><clipPath clipPathUnits="userSpaceOnUse" id="clipPath6"><path d="M 0,32 H 32 V 0 H 0 Z" id="path6"></path></clipPath><clipPath clipPathUnits="userSpaceOnUse" id="clipPath8"><path d="M 0,32 H 32 V 0 H 0 Z" id="path8"></path></clipPath><clipPath clipPathUnits="userSpaceOnUse" id="clipPath10"><path d="M 0,32 H 32 V 0 H 0 Z" id="path10"></path></clipPath></defs><g id="layer-MC0"><path id="path1" d="m 0,0 h -24 c -1.103,0 -2,0.897 -2,2 H 2 C 2,0.897 1.103,0 0,0 m -24,14 c 0,1.103 0.897,2 2,2 v 0.031 C -21.088,14.806 -19.641,14 -18,14 h 3 v 2 h -3 c -1.654,0 -3,1.346 -3,3 0,1.359 0.926,2.548 2.251,2.891 v 0 C -18.46,21.965 -18.223,22 -18,22 V 22.859 24 c 0,2.206 1.794,4 4,4 1.287,0 2.506,-0.634 3.26,-1.697 l 0.389,-0.55 0.658,0.156 C -9.433,25.971 -9.212,26 -9,26 c 1.654,0 3,-1.346 3,-3 V 22.859 22 c 0.223,0 0.46,-0.035 0.749,-0.109 v 0 C -3.926,21.548 -3,20.359 -3,19 -3,17.346 -4.346,16 -6,16 h -3 v -2 h 3 c 1.641,0 3.088,0.806 4,2.031 V 16 c 1.103,0 2,-0.897 2,-2 V 4 H -24 Z M 2,4 V 14 C 2,15.907 0.657,17.5 -1.131,17.899 -1.051,18.254 -1,18.621 -1,19 -1,21.025 -2.229,22.815 -4.059,23.586 -4.353,26.064 -6.443,28 -9,28 -9.168,28 -9.339,27.99 -9.514,27.97 -10.647,29.251 -12.282,30 -14,30 c -3.309,0 -6,-2.691 -6,-6 v -0.435 c -1.798,-0.784 -3,-2.562 -3,-4.565 0,-0.379 0.051,-0.746 0.131,-1.101 C -24.657,17.5 -26,15.907 -26,14 V 4 h -2 V 2 c 0,-2.206 1.794,-4 4,-4 H 0 c 2.206,0 4,1.794 4,4 v 2 z" style="fill:#000000 icc-color(sRGB-IEC61966-2, 0.1, 0, 0, 0);fill-opacity:1;fill-rule:nonzero;stroke:none" transform="matrix(1.3333333,0,0,-1.3333333,37.333333,40)" clip-path="url(#clipPath2)"></path><path id="path3" d="m 9,8 h 3 v 3 H 9 Z" style="fill:#000000 icc-color(sRGB-IEC61966-2, 0.1, 0, 0, 0);fill-opacity:1;fill-rule:nonzero;stroke:none" transform="matrix(1.3333333,0,0,-1.3333333,0,42.666667)" clip-path="url(#clipPath4)"></path><path id="path5" d="m 14,8 h 3 v 3 h -3 z" style="fill:#000000 icc-color(sRGB-IEC61966-2, 0.1, 0, 0, 0);fill-opacity:1;fill-rule:nonzero;stroke:none" transform="matrix(1.3333333,0,0,-1.3333333,0,42.666667)" clip-path="url(#clipPath6)"></path><path id="path7" d="m 19,8 h 3 v 3 h -3 z" style="fill:#000000 icc-color(sRGB-IEC61966-2, 0.1, 0, 0, 0);fill-opacity:1;fill-rule:nonzero;stroke:none" transform="matrix(1.3333333,0,0,-1.3333333,0,42.666667)" clip-path="url(#clipPath8)"></path><path id="path9" d="m 15,13 h 2 v 9 h -2 z" style="fill:#000000 icc-color(sRGB-IEC61966-2, 0.1, 0, 0, 0);fill-opacity:1;fill-rule:nonzero;stroke:none" transform="matrix(1.3333333,0,0,-1.3333333,0,42.666667)" clip-path="url(#clipPath10)"></path></g></svg>