<svg xmlns="http://www.w3.org/2000/svg" id="Clienres" viewBox="0 0 31.71 32"><defs><style>      .cls-1 {        fill: #000;        stroke-width: 0px;      }    </style></defs><path class="cls-1" d="M16,18c4.96,0,9-4.04,9-9S20.96,0,16,0,7,4.04,7,9c0,3.23,1.71,6.06,4.27,7.64C4.68,18.49,0,24.14,0,31v1h31v-2H2.04c.53-6.81,6.47-12,13.96-12ZM9,9c0-3.86,3.14-7,7-7s7,3.14,7,7-3.14,7-7,7-7-3.14-7-7Z"></path><polygon class="cls-1" points="16.74 21.26 15.32 22.68 21.02 28.37 31.71 17.69 30.29 16.27 21.02 25.55 16.74 21.26"></polygon></svg>