<svg xmlns="http://www.w3.org/2000/svg" id="Capa_1" data-name="Capa 1" viewBox="0 0 32 32"><defs><style>      .cls-1 {        fill: #000;        stroke-width: 0px;      }    </style></defs><g><rect class="cls-1" y="30" width="32" height="2"></rect><rect class="cls-1" width="32" height="2"></rect></g><g><path class="cls-1" d="M0,8h5.87c2.97,0,4.85,1.58,4.85,4.3,0,3.02-2.26,4.41-5.07,4.41h-3.63v7.29H0V8ZM5.76,14.83c1.71,0,2.88-.59,2.88-2.51s-1.17-2.49-2.88-2.49h-3.75v5.01h3.75Z"></path><path class="cls-1" d="M10.63,22.1h3.34v-12.21h-3.34v-1.9h8.73v1.9h-3.34v12.21h3.34v1.9h-8.73v-1.9Z"></path><path class="cls-1" d="M28.55,19.86h-6.72l-1.23,4.14h-2.22l4.98-16h3.7l4.94,16h-2.22l-1.23-4.14ZM28,18.03l-2.81-9.46-2.81,9.46h5.62Z"></path></g></svg>