<svg xmlns:xlink="http://www.w3.org/1999/xlink" xmlns="http://www.w3.org/2000/svg" xmlns:svg="http://www.w3.org/2000/svg" id="svg1" width="42.666668" height="42.666668" viewBox="0 0 42.666668 42.666668"><defs id="defs1"><clipPath clipPathUnits="userSpaceOnUse" id="clipPath3"><path d="M 0,32 H 32 V 0 H 0 Z" transform="translate(-16,-2)" id="path3"></path></clipPath></defs><g id="layer-MC0"><path id="path1" d="m 0,0 v -9.414 l 7.293,-7.293 1.414,1.414 L 2,-8.586 V 0 Z" style="fill:#000000 icc-color(sRGB-IEC61966-2, 0.1, 0, 0, 0);fill-opacity:1;fill-rule:nonzero;stroke:none" transform="matrix(1.3333333,0,0,-1.3333333,20,9.3336)"></path><path id="path2" d="m 0,0 c -7.72,0 -14,6.28 -14,14 0,7.72 6.28,14 14,14 C 7.72,28 14,21.72 14,14 14,6.28 7.72,0 0,0 M 0,30 C -8.822,30 -16,22.822 -16,14 -16,5.178 -8.822,-2 0,-2 8.822,-2 16,5.178 16,14 16,22.822 8.822,30 0,30" style="fill:#000000 icc-color(sRGB-IEC61966-2, 0.1, 0, 0, 0);fill-opacity:1;fill-rule:nonzero;stroke:none" transform="matrix(1.3333333,0,0,-1.3333333,21.333333,40)" clip-path="url(#clipPath3)"></path></g></svg>