<svg xmlns:xlink="http://www.w3.org/1999/xlink" xmlns="http://www.w3.org/2000/svg" xmlns:svg="http://www.w3.org/2000/svg" id="svg1" width="42.666668" height="42.666668" viewBox="0 0 42.666668 42.666668"><defs id="defs1"><clipPath clipPathUnits="userSpaceOnUse" id="clipPath2"><path d="M 0,32 H 32 V 0 H 0 Z" transform="translate(-16,-22.996101)" id="path2"></path></clipPath><clipPath clipPathUnits="userSpaceOnUse" id="clipPath4"><path d="M 0,32 H 32 V 0 H 0 Z" id="path4"></path></clipPath><clipPath clipPathUnits="userSpaceOnUse" id="clipPath6"><path d="M 0,32 H 32 V 0 H 0 Z" id="path6"></path></clipPath><clipPath clipPathUnits="userSpaceOnUse" id="clipPath8"><path d="M 0,32 H 32 V 0 H 0 Z" id="path8"></path></clipPath><clipPath clipPathUnits="userSpaceOnUse" id="clipPath10"><path d="M 0,32 H 32 V 0 H 0 Z" transform="translate(-20.3755,-10.2192)" id="path10"></path></clipPath></defs><g id="layer-MC0"><path id="path1" d="m 0,0 c -2.177,0 -4.353,-0.829 -6.01,-2.485 -1.606,-1.606 -2.49,-3.741 -2.49,-6.011 0,-2.27 0.884,-4.405 2.49,-6.01 3.314,-3.314 8.706,-3.314 12.02,0 1.606,1.605 2.49,3.74 2.49,6.01 0,2.27 -0.884,4.405 -2.49,6.011 C 4.353,-0.829 2.177,0 0,0 m 0,-18.991 c -2.689,0 -5.377,1.024 -7.424,3.071 -1.984,1.982 -3.076,4.619 -3.076,7.424 0,2.805 1.092,5.442 3.076,7.425 4.093,4.093 10.755,4.094 14.848,0 1.984,-1.983 3.076,-4.62 3.076,-7.425 0,-2.805 -1.092,-5.442 -3.076,-7.424 C 5.377,-17.967 2.689,-18.991 0,-18.991" style="fill:#000000 icc-color(sRGB-IEC61966-2, 0.1, 0, 0, 0);fill-opacity:1;fill-rule:nonzero;stroke:none" transform="matrix(1.3333333,0,0,-1.3333333,21.333333,12.0052)" clip-path="url(#clipPath2)"></path><path id="path3" d="M 2,2 H 30 V 27 H 2 Z M 32,0 H 0 v 29 h 32 z" style="fill:#000000 icc-color(sRGB-IEC61966-2, 0.1, 0, 0, 0);fill-opacity:1;fill-rule:nonzero;stroke:none" transform="matrix(1.3333333,0,0,-1.3333333,0,42.666667)" clip-path="url(#clipPath4)"></path><path id="path5" d="M 9,26 H 7 v 6 h 2 z" style="fill:#000000 icc-color(sRGB-IEC61966-2, 0.1, 0, 0, 0);fill-opacity:1;fill-rule:nonzero;stroke:none" transform="matrix(1.3333333,0,0,-1.3333333,0,42.666667)" clip-path="url(#clipPath6)"></path><path id="path7" d="m 25,26 h -2 v 6 h 2 z" style="fill:#000000 icc-color(sRGB-IEC61966-2, 0.1, 0, 0, 0);fill-opacity:1;fill-rule:nonzero;stroke:none" transform="matrix(1.3333333,0,0,-1.3333333,0,42.666667)" clip-path="url(#clipPath8)"></path><path id="path9" d="m 0,0 -5.375,4.3 v 6.481 h 2 V 5.261 L 1.249,1.562 Z" style="fill:#000000 icc-color(sRGB-IEC61966-2, 0.1, 0, 0, 0);fill-opacity:1;fill-rule:nonzero;stroke:none" transform="matrix(1.3333333,0,0,-1.3333333,27.167333,29.041067)" clip-path="url(#clipPath10)"></path></g></svg>