<svg xmlns:xlink="http://www.w3.org/1999/xlink" xmlns="http://www.w3.org/2000/svg" xmlns:svg="http://www.w3.org/2000/svg" id="svg1" width="42.666668" height="42.666668" viewBox="0 0 42.666668 42.666668"><defs id="defs1"><clipPath clipPathUnits="userSpaceOnUse" id="clipPath2"><path d="M 0,32 H 32 V 0 H 0 Z" transform="translate(-2.0118001,-22.170501)" id="path2"></path></clipPath><clipPath clipPathUnits="userSpaceOnUse" id="clipPath4"><path d="M 0,32 H 32 V 0 H 0 Z" transform="translate(-22.378101,-13.9649)" id="path4"></path></clipPath><clipPath clipPathUnits="userSpaceOnUse" id="clipPath6"><path d="M 0,32 H 32 V 0 H 0 Z" id="path6"></path></clipPath><clipPath clipPathUnits="userSpaceOnUse" id="clipPath8"><path d="M 0,32 H 32 V 0 H 0 Z" id="path8"></path></clipPath></defs><g id="layer-MC0"><path id="path1" d="m 0,0 h 3.977 c 1.714,0 2.879,-0.616 2.879,-2.49 0,-1.921 -1.165,-2.515 -2.879,-2.515 l -3.977,0 z m 11,0 h 3.748 c 1.714,0 2.879,-0.616 2.879,-2.49 0,-1.921 -1.165,-2.515 -2.879,-2.515 l -3.748,0 z M 0,-8.844 6.514,-14.171 H 8.988 9.782 11 v 7.292 h 3.635 c 2.81,0 5.073,1.394 5.073,4.411 0,2.719 -1.874,4.297 -4.846,4.297 H 8.988 V -13.537 L 0.64,-6.879 h 3.451 c 2.972,0 4.846,1.394 4.846,4.411 0,2.719 -1.874,4.297 -4.846,4.297 h -6.103 v -16 H 0 Z" style="fill:#000000 icc-color(sRGB-IEC61966-2, 0.1, 0, 0, 0);fill-opacity:1;fill-rule:nonzero;stroke:none" transform="matrix(1.3333333,0,0,-1.3333333,2.6824,13.106)" clip-path="url(#clipPath2)"></path><path id="path3" d="M 0,0 2.81,9.464 5.622,0 Z m 0.983,10.035 -4.984,-16 h 2.218 l 1.234,4.137 h 6.72 l 1.234,-4.137 h 2.217 l -4.938,16 z" style="fill:#000000 icc-color(sRGB-IEC61966-2, 0.1, 0, 0, 0);fill-opacity:1;fill-rule:nonzero;stroke:none" transform="matrix(1.3333333,0,0,-1.3333333,29.837467,24.0468)" clip-path="url(#clipPath4)"></path><path id="path5" d="M 0,0 H 32 V 2 H 0 Z" style="fill:#000000 icc-color(sRGB-IEC61966-2, 0.1, 0, 0, 0);fill-opacity:1;fill-rule:nonzero;stroke:none" transform="matrix(1.3333333,0,0,-1.3333333,0,42.666667)" clip-path="url(#clipPath6)"></path><path id="path7" d="m 0,30 h 32 v 2 H 0 Z" style="fill:#000000 icc-color(sRGB-IEC61966-2, 0.1, 0, 0, 0);fill-opacity:1;fill-rule:nonzero;stroke:none" transform="matrix(1.3333333,0,0,-1.3333333,0,42.666667)" clip-path="url(#clipPath8)"></path></g></svg>