<svg xmlns="http://www.w3.org/2000/svg" id="Capa_1" data-name="Capa 1" viewBox="0 0 32 32"><defs><style>      .cls-1 {        fill: #000;        stroke-width: 0px;      }    </style></defs><path class="cls-1" d="M23,23v-5h-2.95l3.89-11.68c.22-.56.78-1.19.97-1.38,1.9-1.9,4.41-2.94,7.08-2.94V0C28.8,0,25.78,1.25,23.51,3.51c-.09.09-1,.99-1.45,2.12l-4.07,12.2v.16c0,1.1.9,2,2,2h1v3c0,2.21,1.79,4,4,4h2v5h2v-7h-4c-1.1,0-2-.9-2-2Z"></path><path class="cls-1" d="M9,23v-5h2.95s-3.89-11.68-3.89-11.68c-.22-.56-.78-1.19-.97-1.38C5.18,3.04,2.67,2,0,2V0c3.2,0,6.22,1.25,8.49,3.51.09.09,1,.99,1.45,2.12l4.07,12.2v.16c0,1.1-.9,2-2,2h-1s0,3,0,3c0,2.21-1.79,4-4,4h-2s0,5,0,5h-2v-7h4c1.1,0,2-.9,2-2Z"></path></svg>