<svg xmlns="http://www.w3.org/2000/svg" id="Capa_1" data-name="Capa 1" viewBox="0 0 32 32"><defs><style>      .cls-1 {        fill: none;        stroke: #000;        stroke-miterlimit: 10;        stroke-width: 2px;      }      .cls-2 {        fill: #000;        stroke-width: 0px;      }    </style></defs><g><path class="cls-1" d="M12,17c-3.31,0-6-2.69-6-6s2.69-6,6-6"></path><line class="cls-1" x1="14" y1="13" x2="3" y2="13"></line><line class="cls-1" x1="14" y1="9" x2="3" y2="9"></line></g><polygon class="cls-2" points="23 8 16 8 16 1 18 1 18 6 23 6 23 8"></polygon><polygon class="cls-2" points="2 22 2 2 16.59 2 22 7.41 22 13 24 13 24 6.59 17.41 0 0 0 0 24 13 24 13 22 2 22"></polygon><path class="cls-2" d="M17,20.05v-1.56c0-1.3.98-2,2.13-2s2.13.7,2.13,2v1.56c0,1.28-.98,2-2.13,2s-2.13-.72-2.13-2ZM19.13,20.71c.41,0,.7-.21.7-.76v-1.34c0-.55-.29-.78-.7-.78s-.7.23-.7.78v1.34c0,.55.31.76.7.76ZM23.66,18.16h1.66l-4.98,7.77h-1.66l4.98-7.77ZM22.73,23.95c0-1.3.98-2,2.13-2s2.13.7,2.13,2v1.56c0,1.28-.98,2-2.13,2s-2.13-.72-2.13-2v-1.56ZM24.87,26.16c.41,0,.7-.21.7-.76v-1.34c0-.55-.29-.78-.7-.78s-.7.23-.7.78v1.34c0,.55.3.76.7.76Z"></path><circle class="cls-1" cx="22" cy="22" r="9" transform="translate(-9.11 22) rotate(-45)"></circle></svg>